<svg width="512" height="512" viewBox="0 0 512 512" xmlns="http://www.w3.org/2000/svg">
  <defs>
    <clipPath id="rounded"><rect width="512" height="512" rx="115"/></clipPath>
  </defs>
  <g clip-path="url(#rounded)">
    <!-- Background -->
    <rect width="512" height="512" fill="#F7F3EC"/>
    <!-- Subtle texture: inner border -->
    <rect x="24" y="24" width="464" height="464" rx="95" fill="none" stroke="#CC9933" stroke-width="3" opacity="0.4"/>
    <!-- Top accent bar -->
    <rect x="0" y="0" width="512" height="8" fill="#CC9933"/>
    <!-- Bottom accent bar -->
    <rect x="0" y="504" width="512" height="8" fill="#CC9933"/>
    <!-- Gold rule -->
    <rect x="156.7" y="285" width="198.6" height="2.5" fill="#CC9933"/>
    <!-- Text paths -->
    <path d="M474 446C476 445 477 446 478 448L479 452C478 455 474 449 473 452V454C473 455 474 455 475 455C476 455 477 455 478 456C477 459 477 466 480 476C477 476 475 477 474 479C474 488 467 511 470 522C467 523 466 524 465 525C465 526 466 529 466 530C465 531 460 544 449 569C436 593 411 608 374 615C366 617 353 616 336 612C329 613 320 610 311 603C310 605 309 606 306 606C284 595 258 578 227 555C220 569 222 610 203 612C194 612 170 616 166 605C171 558 172 520 170 492C157 478 126 421 116 409C116 404 113 400 108 396C70 312 45 252 32 216C22 183 16 161 15 150C11 141 9 132 9 125C13 112 21 102 32 96C38 83 45 75 54 72C62 73 67 74 69 73C70 78 76 81 86 84C86 85 83 87 84 90C93 95 104 118 112 123C114 127 114 137 122 137C122 136 122 136 121 135C120 133 120 132 121 131H124C120 124 117 120 114 119C111 110 106 101 98 93V89C79 65 58 9 44 -19C37 -52 31 -84 26 -115C20 -148 54 -168 63 -186C74 -194 82 -200 88 -203C92 -203 107 -206 116 -205C116 -202 117 -201 120 -201C120 -202 121 -202 123 -202H126C153 -190 175 -177 194 -162C194 -161 190 -157 194 -157C197 -156 197 -160 198 -160C201 -154 207 -150 218 -147C221 -146 216 -142 216 -141C217 -142 219 -142 221 -142C225 -133 231 -128 239 -125C239 -124 236 -120 239 -120C244 -124 252 -116 249 -111C253 -108 262 -96 269 -97C269 -93 281 -80 281 -73C282 -73 283 -78 286 -78C286 -77 292 -72 293 -69C292 -69 287 -72 287 -69C290 -64 292 -62 293 -61C294 -63 295 -64 297 -64C297 -62 296 -56 300 -54C303 -55 299 -60 302 -60C302 -57 310 -52 311 -48C308 -49 307 -49 306 -46C311 -43 320 -24 329 -27C328 -26 327 -25 327 -24C337 -20 340 -7 345 0C342 0 340 0 340 1H350C351 4 355 14 359 18C355 18 353 19 353 20C356 21 358 28 362 29C363 29 363 28 363 27C363 25 363 24 364 24C367 25 363 38 367 30C368 29 369 29 370 30C371 34 365 35 365 38C366 39 369 39 372 39C372 43 377 46 377 49C376 49 371 44 370 48C373 52 382 52 383 57C380 57 378 58 378 59C383 62 387 80 395 84C396 95 413 109 414 117C412 119 411 122 411 125C416 127 416 140 419 145C420 144 421 144 424 144C424 147 422 148 422 151L424 152C426 153 428 153 429 152C426 157 431 172 426 183C434 180 441 192 441 199C438 202 435 197 434 197C435 198 435 200 434 202C433 203 432 204 432 205L442 203C445 204 445 216 450 216C443 221 445 228 455 236C455 229 446 223 454 219C455 231 463 256 464 261C459 261 462 251 456 251C457 254 458 274 466 278C467 282 464 284 464 285H468C467 296 474 324 474 327C470 327 468 328 467 331H472C473 334 469 341 472 341C475 341 473 337 476 337C479 357 480 390 479 435C478 438 473 434 473 437L479 440C480 442 479 444 476 445C475 445 475 445 474 446V447V446ZM134 158C140 173 165 232 172 249C175 249 175 248 174 245C179 252 181 257 180 260L179 257C178 255 177 254 174 255C174 258 177 260 176 263C180 260 183 262 185 271L179 265C178 266 178 271 178 275C185 278 187 286 186 297C191 300 189 316 196 321C192 326 194 338 202 338C197 343 198 345 203 345C203 348 199 348 200 351C203 352 204 362 201 363C204 366 206 366 208 363L209 370C210 374 211 377 212 379C212 382 210 383 207 383C207 384 210 388 209 391C212 392 214 390 215 390C216 393 213 394 209 393C210 394 211 395 214 395C215 398 210 396 210 399H215C215 404 222 439 219 459C218 461 226 464 220 470C221 471 221 480 224 481C234 508 267 530 284 549C299 560 314 569 328 578C336 578 350 589 359 589C360 590 367 591 368 594C369 591 381 595 382 595C396 593 405 586 411 573C414 568 416 564 417 562C419 557 425 538 426 535C428 530 433 506 440 464C443 375 424 278 383 173C390 177 394 199 399 203C399 202 397 196 398 193C399 200 405 223 416 263C427 303 434 334 437 355C438 350 438 341 435 327C432 313 431 304 431 299C426 296 430 282 423 279C423 278 424 277 425 278L426 275C426 273 425 272 423 272C422 273 421 272 422 269C424 270 425 270 425 267C422 263 423 258 422 254C419 254 418 255 417 255C416 253 417 252 419 252L420 251C416 243 410 215 405 203C412 204 414 209 413 217C416 217 417 215 417 212C420 213 420 216 417 219C415 221 414 222 414 223C418 224 419 219 420 219C421 224 425 232 426 236C426 236 424 236 420 237C419 240 422 242 422 243C423 243 424 240 425 241C426 241 426 241 427 242H428C428 246 424 250 425 254C426 257 430 251 431 254V259H428C428 262 430 267 429 270C430 273 432 269 435 269C435 270 433 275 434 279C435 279 437 281 438 281C439 272 433 255 434 248C431 240 420 219 424 210C429 210 424 215 425 218C428 219 431 215 435 216C434 212 433 209 434 207C430 208 424 206 420 209C417 206 415 200 414 191C411 192 408 192 406 189C407 188 408 187 410 188H412C413 182 410 181 405 185C404 184 404 184 405 183C405 183 407 182 410 180C407 173 407 169 408 168C415 170 412 176 412 180C417 179 415 172 418 169C415 166 413 161 413 155H407C407 152 408 137 405 134C402 134 401 134 400 135C402 130 402 125 400 122C390 122 396 112 393 107C390 106 390 107 390 110V113C386 113 390 104 389 101C387 99 385 99 384 101C383 100 387 98 386 95C383 92 381 96 380 95C380 92 383 90 382 86C379 86 379 88 376 87C376 83 376 82 380 83C375 76 371 65 364 61C365 52 360 43 350 36C353 27 338 14 338 5C335 4 333 3 332 3C329 -9 308 -25 305 -37C304 -37 302 -38 299 -39C299 -46 299 -50 298 -51C295 -51 299 -48 298 -45C289 -50 282 -58 276 -69C273 -70 270 -76 266 -77C265 -74 257 -59 256 -51C301 0 331 47 346 89C346 90 345 91 342 91C338 89 336 84 336 77C335 77 333 76 332 75C332 74 336 72 335 71H329V65C328 64 327 65 326 66C326 63 324 59 324 55C323 55 323 56 323 57L322 59C319 47 307 26 304 21C297 19 292 13 291 3C276 -12 256 -34 231 -65C224 -68 220 -72 220 -77C213 -80 207 -85 202 -94C193 -97 180 -111 179 -112C179 -113 181 -116 180 -117C173 -109 156 -131 152 -135C150 -136 148 -135 146 -134L144 -132C141 -133 120 -149 112 -153C104 -157 87 -162 75 -161C69 -118 75 -75 92 -30C91 -27 90 -25 89 -25C89 -24 94 -24 94 -23C90 -19 92 -13 99 -12C98 -7 107 5 106 13C117 21 129 56 140 65C140 66 142 71 141 74H146C155 91 175 121 208 164C207 165 207 166 207 167C203 166 199 158 194 158C193 162 198 163 198 167C195 164 193 163 191 163C190 162 191 161 192 160V157C191 157 188 160 188 157C187 158 188 164 185 167C189 168 190 163 191 163C191 172 201 168 196 173C195 174 194 175 195 176C206 177 211 182 210 191C217 194 221 206 226 207C226 208 224 212 225 213C233 213 246 233 257 236C257 242 257 245 258 246C245 242 219 221 210 217C205 208 179 195 176 183L175 184C174 184 173 184 173 185C161 176 137 143 125 134C124 138 123 140 122 140C123 147 136 153 137 161L134 158C134 155 133 154 130 155C130 157 131 158 134 158ZM449 468C448 467 447 468 447 471C448 471 449 470 449 468ZM452 463C452 462 451 460 450 459L448 461V463H452ZM444 453C446 457 449 455 452 455C451 451 450 447 450 444C449 443 447 444 444 445C444 448 445 449 446 449C447 449 447 449 448 450C446 452 445 453 444 453ZM470 449C471 446 465 446 466 449ZM471 434C469 433 468 435 468 438V441H470C471 441 471 440 471 437V434ZM448 407C445 407 445 412 446 422C447 432 447 438 446 440C451 431 451 411 447 379C440 382 447 399 443 403C444 404 447 406 448 407ZM473 428C474 429 474 429 475 428C476 427 477 426 476 425C475 424 474 424 473 425ZM468 426H471V423H468ZM470 380C466 380 470 392 466 395C466 396 467 396 470 396ZM453 380C454 387 455 390 456 390C454 385 459 380 453 380ZM454 369C454 374 455 377 456 377C456 371 459 369 454 369C457 361 451 340 452 333C448 329 448 310 443 307C448 341 452 362 454 369ZM438 375C439 376 439 376 440 375C441 374 442 373 441 372C440 371 439 371 438 372ZM203 373H206V371H203ZM438 357C436 357 439 364 437 367C442 366 442 363 438 357ZM112 163C105 156 103 151 104 147C101 146 99 145 96 145C96 149 86 153 86 161C105 198 118 231 124 258H126L128 257C124 263 129 263 129 271C120 259 112 243 107 223C94 199 84 181 77 168C72 171 72 180 77 194C82 208 84 217 83 222C90 235 101 259 114 292C127 325 139 350 150 366V362C150 361 151 361 153 361C153 354 140 326 147 317C147 312 144 308 144 305C145 305 147 306 148 308L150 312C153 311 155 311 156 312C157 313 158 313 159 314C159 311 157 309 158 306H155L153 305C152 302 155 300 155 299H152V283C153 283 154 283 154 282C155 282 155 288 159 287C159 288 156 290 156 293C157 293 158 293 159 294C161 297 161 298 158 299C161 299 161 306 164 306C163 303 164 300 166 299C162 294 158 271 150 267C151 262 148 256 143 248C143 247 145 247 149 247C150 243 146 240 143 243C143 242 143 241 142 240C142 239 142 238 143 239C145 240 146 240 147 240C147 234 141 238 143 230C142 231 138 231 131 231C131 229 132 228 134 229H138V221C135 221 133 219 132 215C137 214 132 202 129 207C129 206 131 204 130 201C129 201 127 204 126 204C127 201 128 197 131 193C131 192 129 192 126 192C129 187 129 184 124 185C124 184 124 184 125 183C126 182 127 181 126 180C125 180 123 181 122 182C118 181 117 173 122 173C119 170 115 160 111 157C110 158 111 159 112 160V163ZM166 357C167 358 167 358 168 357C169 356 170 355 169 354C168 353 167 353 166 354ZM170 333C170 340 172 343 177 343C176 342 174 333 170 333ZM164 333C161 334 160 335 161 338C162 340 162 341 162 342C167 342 164 336 164 333ZM443 342C447 343 447 335 443 338ZM464 342C464 341 463 341 461 341C461 342 461 342 462 342ZM464 329C461 328 460 329 460 332C463 332 464 331 464 329ZM172 325C171 324 170 326 170 331C171 331 172 329 172 325ZM444 326C443 325 442 326 441 327C441 330 442 331 444 331ZM162 329C161 326 156 328 155 327ZM148 325C148 324 147 324 146 324C146 325 147 325 148 325ZM159 325C160 324 161 323 161 321H159ZM150 314C153 315 152 323 156 324C156 317 154 314 150 314ZM461 313C458 313 457 315 460 320C461 320 461 318 461 313ZM164 315C165 316 167 317 168 317C169 313 169 310 165 311C165 312 163 314 164 315ZM464 308C463 308 463 309 463 310C462 311 462 311 462 312C464 312 465 311 465 309C464 310 464 309 464 308ZM459 306C456 306 456 307 456 308V311C458 310 459 309 459 306ZM436 301C436 304 439 305 438 308C443 307 446 295 442 291C439 294 443 301 436 301ZM470 300C469 303 468 305 467 305C464 302 466 299 470 300ZM458 297C455 298 455 301 456 302C457 302 458 300 458 297ZM438 293C438 291 437 290 436 289C435 289 434 290 435 291C435 292 436 293 438 293ZM438 289C442 290 442 284 438 285ZM458 289C458 288 457 288 455 288C455 289 456 289 458 289ZM454 275C451 275 450 278 453 279C456 279 457 276 454 275ZM447 264C446 265 449 266 449 267C449 265 448 264 447 264ZM446 259C448 259 449 258 449 255H446ZM435 242C435 244 436 247 438 250L440 255C441 256 441 257 442 256C444 255 445 252 444 249C443 250 442 251 441 251C439 250 439 247 441 243C438 244 436 242 435 242ZM440 231C438 231 437 232 438 235C439 237 439 239 438 240H443C443 239 443 237 442 234L440 231ZM242 233C242 234 245 236 245 237C248 236 245 232 242 233ZM418 228C418 231 420 231 419 234C423 233 422 227 418 228ZM436 222C431 223 427 228 431 231C434 230 435 223 436 222ZM218 215C215 215 216 210 213 211C215 216 223 222 236 229C236 228 236 227 235 226C233 224 232 223 233 223C232 223 229 222 224 219C224 218 226 216 225 215C222 218 219 218 218 215C219 214 220 213 220 212H218V215ZM220 210H222V207H220ZM209 206C208 206 201 199 198 200C203 205 206 209 209 206ZM419 188C419 192 418 194 417 194C420 195 423 199 424 206C425 205 426 204 426 202C426 199 427 199 430 200L429 199C428 198 428 198 429 197H424C423 194 425 190 425 189C424 190 423 190 422 189C421 188 420 188 419 188C425 182 425 184 420 175C419 177 417 181 414 186C415 186 415 186 416 187L417 188H419ZM206 200H208V198H206ZM208 195H210V193H208ZM191 193C191 192 190 192 189 192C189 193 190 193 191 193ZM430 192C431 193 432 193 435 193C435 190 434 188 431 188L430 190V192ZM176 181C177 181 177 181 177 182C179 181 179 180 178 179H176V181ZM419 161C420 165 424 171 425 174C428 170 423 162 419 161ZM106 150C106 153 107 155 110 155C110 151 109 149 106 150ZM413 152C414 152 417 154 418 153V149C415 148 413 149 413 152ZM408 151C409 152 411 152 411 151ZM150 145H154C154 144 153 142 153 141H150ZM153 140H156C157 139 157 139 156 138L155 137H153ZM167 137H170V134H167ZM140 127C140 132 142 134 146 134C145 133 143 127 140 127ZM170 132H172V129H170ZM142 122C142 127 144 129 148 129C147 129 145 122 142 122ZM405 121C404 124 405 126 408 126C409 124 408 122 405 121C405 118 404 117 402 117V120C403 120 404 120 404 121H405ZM132 114C131 115 131 116 133 118C134 120 135 121 135 122C137 121 137 120 135 118C132 115 132 115 132 114ZM135 109C131 110 137 116 137 117C139 116 139 115 138 113C136 112 135 110 135 109ZM406 110C403 113 406 115 410 115C410 112 409 110 406 110ZM122 105C123 105 123 106 123 107H125V104C124 104 124 104 124 103H122V105ZM398 98C394 98 392 104 395 105C396 106 398 104 399 104C398 103 397 101 398 98ZM124 101C125 100 125 101 125 102H128V99C127 100 126 100 126 98H124V101ZM392 86C389 86 388 88 389 91C390 95 392 97 395 97C395 94 391 91 392 86ZM382 78C382 83 384 84 387 81C387 78 385 77 382 78ZM129 78C129 77 128 77 126 77C126 78 126 78 127 78ZM377 60C374 61 373 62 374 64C375 69 378 72 381 73C380 68 378 63 377 60ZM370 61C370 62 372 62 372 61ZM77 43C81 44 81 38 77 39ZM80 38C81 37 81 36 82 35C81 34 81 34 80 35ZM358 37C362 37 358 33 358 32ZM346 9C347 9 347 10 347 11H350V8C349 8 348 8 348 7H346V9ZM335 -9H338V-11H335ZM314 -27H316V-29H314ZM291 -58C291 -59 290 -59 288 -59C288 -58 289 -58 291 -58ZM230 -87C229 -82 237 -80 237 -76C241 -77 239 -81 230 -87ZM224 -89C224 -86 225 -86 228 -87C227 -90 225 -90 224 -89ZM213 -99H215V-101H213ZM239 -118C239 -117 241 -115 246 -114C245 -117 242 -119 239 -118ZM179 -131C180 -128 182 -125 186 -124C187 -127 184 -130 179 -131ZM156 -132C157 -133 158 -133 158 -131H160V-133C159 -133 159 -134 159 -135H156V-132ZM160 -147C164 -141 170 -136 177 -132C174 -139 169 -144 160 -147ZM141 -147C141 -144 147 -142 147 -139C148 -140 148 -141 148 -144C144 -146 142 -147 141 -147ZM155 -148C158 -147 159 -148 159 -150H155ZM152 -151H154V-154H152ZM135 -165C136 -162 141 -159 149 -154C149 -162 140 -160 135 -165ZM122 -172C123 -169 130 -166 131 -163C133 -164 133 -166 132 -167C131 -170 127 -172 122 -172ZM107 -203C108 -202 110 -202 110 -203ZM214 387C211 387 210 386 210 385C213 385 214 386 214 387ZM207 360C204 357 204 355 207 355ZM143 301C141 301 140 303 141 306C142 309 142 310 141 311C140 307 130 286 130 273C131 273 136 270 136 273C135 274 134 274 133 275C133 275 134 277 137 282C136 282 136 284 136 289C139 286 141 286 141 290C138 290 137 290 137 291C138 292 138 297 141 297C140 296 141 295 143 295ZM141 290C143 290 144 290 144 291C143 291 143 292 143 293C142 293 141 292 141 290ZM190 293C188 290 188 287 190 285C194 289 194 292 190 293ZM148 281C150 278 144 269 149 269C149 272 153 275 152 279C151 279 149 281 148 281ZM185 281C185 278 186 276 188 277C188 279 187 280 185 281ZM148 267C147 267 146 267 145 266C142 263 143 262 146 261C145 264 148 266 148 267ZM431 263H434V265H431ZM422 263C421 263 420 262 419 261C418 259 418 258 420 258C420 259 421 260 422 263ZM141 255H144C145 257 144 258 141 258ZM141 253C135 247 134 242 137 237C137 244 143 247 141 253ZM261 247C263 247 264 248 264 249C262 249 261 248 261 247ZM129 227C129 226 129 225 128 224V223C129 222 133 221 134 224C131 224 130 227 129 227ZM408 224C410 224 411 224 411 225C409 225 408 225 408 224ZM128 219C128 218 126 215 126 212C129 213 130 215 130 218C130 219 129 219 128 219ZM161 211C162 211 163 211 164 212C166 215 166 216 164 217ZM132 215C131 214 131 213 131 211C132 211 132 212 132 215ZM404 211C403 209 403 208 404 207ZM413 206C413 205 413 205 412 205V203C413 204 414 204 415 205C414 206 414 206 413 206ZM126 204C126 205 125 205 124 205C124 204 125 204 126 204ZM404 200C399 189 397 180 400 173C402 172 403 173 404 176C404 177 404 178 405 179C404 179 404 179 403 180C400 181 399 182 400 183C403 190 405 194 407 197L406 199C406 200 405 201 404 200ZM442 194C442 189 436 184 441 182C441 183 441 184 442 187C443 191 443 193 442 194ZM123 188C124 188 125 188 125 189C124 189 123 189 123 188ZM394 186H396V188H394ZM430 181C427 177 429 175 434 175C433 178 431 180 430 181ZM436 180C433 177 435 174 438 175C440 176 439 178 436 180ZM214 176C215 173 212 172 212 171C215 171 217 172 218 174C217 174 217 174 217 175C216 176 215 177 214 176ZM203 173C205 173 206 173 206 174H204C203 174 203 174 203 173ZM383 173C378 166 375 160 375 153C382 162 385 168 383 173ZM396 163C393 164 396 170 396 173C393 172 392 170 393 165C394 164 395 163 396 163ZM112 163C113 164 115 168 116 169C114 168 113 166 112 163ZM400 169C400 170 398 170 398 169ZM434 167C434 168 432 168 431 167ZM396 163C395 161 396 159 398 158L400 157C397 152 395 149 394 149C390 151 385 146 387 141C390 140 391 146 392 146C395 146 398 143 401 143C402 144 404 160 408 161C405 164 400 160 396 163ZM393 158C390 161 385 158 386 153C389 154 392 158 393 158ZM141 156C140 155 138 152 134 147C137 148 140 151 141 156ZM375 153C367 142 353 108 344 97C345 94 347 92 350 92C350 97 359 105 358 116C359 116 361 115 362 115C363 124 374 144 375 153ZM383 151C383 150 383 150 382 149L384 147C384 148 385 149 386 150H384L383 151ZM376 145C380 145 382 141 384 143C381 146 378 146 376 145ZM394 141C395 140 395 139 395 138H389C389 135 390 134 393 135C397 135 399 137 399 140C398 140 397 142 394 141ZM380 135 383 138C382 140 381 141 380 140ZM420 140C417 135 417 131 420 128C423 131 423 137 420 140ZM374 132C374 129 374 127 375 127C376 128 377 130 376 131C376 132 375 133 374 132ZM388 132C387 131 389 127 392 122C393 129 392 132 388 132ZM380 126H382V128H380ZM114 119C114 120 118 122 117 125C116 126 115 126 114 125C113 124 113 123 112 123C112 122 111 119 108 115C109 114 111 115 112 116ZM370 123H372V126H370ZM386 126C383 123 382 120 383 117C386 117 387 117 388 116C387 117 387 125 386 126ZM416 121C419 121 420 123 419 126H416ZM381 116C381 113 376 112 377 108C382 110 385 112 387 113C386 113 384 117 381 116ZM108 115C107 115 103 110 106 109C107 112 108 114 108 115ZM100 102C101 101 101 102 101 103C100 103 100 103 100 102ZM100 102C97 99 95 97 95 96C97 96 99 98 100 102ZM372 102C372 97 372 94 376 95C376 100 375 102 372 102ZM95 92H93C90 90 90 89 93 89C93 90 93 90 94 91L95 92ZM370 90C364 90 364 78 370 78C367 82 367 86 370 90ZM395 81C396 81 397 83 400 87C397 88 396 84 395 84ZM86 79C87 79 88 79 88 80C87 80 86 80 86 79ZM388 67H390V69H388ZM357 53C356 51 355 49 356 48C357 47 358 48 358 49C359 52 358 53 357 53ZM347 51C346 52 345 51 345 49C345 48 345 47 344 47C347 46 348 48 347 51ZM351 44C348 43 349 40 352 39C355 40 354 44 351 44ZM335 35V32C336 32 337 33 338 35ZM298 26C298 24 298 23 299 23L300 24C300 26 299 27 298 26ZM334 23C331 20 332 16 336 17C337 20 337 22 334 23ZM326 20 328 18C329 19 329 19 329 20C329 21 326 21 326 20ZM322 12H324V14H322ZM290 9C287 9 285 8 286 7C287 7 289 8 290 9ZM322 6C322 3 318 0 322 -1C323 -1 326 6 322 6ZM275 -6C278 -5 281 -3 282 1C281 2 279 1 276 -3ZM315 -5C316 -6 317 -6 318 -7C319 -6 319 -6 318 -5C318 -4 315 -4 315 -5ZM316 -41C313 -41 312 -43 312 -46C315 -46 316 -44 316 -41ZM286 -45C283 -44 281 -49 284 -49C284 -48 284 -48 285 -48C286 -47 287 -46 286 -45ZM268 -67C267 -70 272 -72 272 -69C271 -69 269 -67 268 -67ZM161 -120C156 -121 152 -129 148 -130C152 -131 156 -128 161 -120Z" transform="translate(131.9,260.0) scale(0.18,-0.18)" fill="#CC9933"/><path d="M87 166V169C87 171 88 172 89 172C90 172 90 167 93 168C94 171 92 175 89 180C90 181 91 181 92 180C93 179 94 179 95 179C95 191 107 204 98 210C98 211 99 212 101 212H104C104 216 105 219 107 222C106 223 105 222 104 221C103 219 103 218 102 219C109 234 127 287 131 296C128 296 127 294 126 294C130 298 131 305 134 308C132 306 130 306 129 308C130 309 131 316 134 316C135 316 133 313 137 312C140 316 134 322 134 323C143 327 145 341 150 346C143 347 145 353 152 352C152 359 173 382 169 393C172 393 173 400 177 399C178 403 179 406 179 407C184 414 197 432 217 462C256 521 282 548 319 568C327 561 334 545 339 521C344 496 350 480 356 473C360 472 365 474 368 474C380 486 385 503 384 526C382 548 376 565 365 578V582C343 597 325 604 312 603C309 603 308 600 307 600C271 597 238 576 223 559C210 545 174 496 164 485V477C153 469 140 437 133 430C132 429 133 428 134 427V424C125 414 107 367 101 358V351C93 338 89 326 89 317C88 318 86 316 85 316C84 303 69 273 68 258C67 259 67 259 66 258L65 256C64 244 60 229 53 212C54 212 55 211 55 209C50 207 52 199 49 196C48 187 44 169 37 140C30 111 26 87 26 70C21 60 18 42 17 15C11 -52 12 -104 19 -142C20 -144 39 -183 45 -192C52 -195 64 -204 81 -217C84 -216 74 -211 78 -208C89 -222 108 -228 134 -226C160 -223 178 -214 187 -199C192 -199 201 -187 209 -188C216 -177 245 -148 253 -129C254 -128 255 -128 257 -127L260 -126C261 -123 266 -116 266 -111C272 -110 277 -102 281 -88C285 -73 290 -65 296 -63C293 -59 304 -46 299 -42C293 -55 281 -73 263 -97H266C262 -102 258 -105 254 -106C254 -103 257 -97 254 -96C275 -66 304 -15 339 58C342 58 344 58 345 59C345 64 344 66 343 66C343 62 342 60 339 60C340 63 338 67 338 68C335 68 336 62 332 62C334 66 335 71 336 77C333 77 332 77 332 78C333 83 325 100 329 107C326 110 322 113 315 117C310 96 308 82 307 77C255 -43 214 -121 147 -174C130 -189 115 -197 103 -199C84 -198 72 -176 68 -153C62 -151 59 -140 59 -120L61 -118C61 -117 57 -115 57 -112C60 -107 59 -101 55 -94C56 -82 57 -66 58 -45C59 -24 59 -11 60 -6H63C60 -5 60 0 62 11C64 21 65 27 65 28C62 31 60 27 60 28C68 33 68 57 72 65C69 68 68 62 67 65C75 77 77 88 73 99C80 102 82 123 83 126C78 126 78 125 78 121C78 118 78 117 77 116C69 117 82 131 79 138C90 142 91 162 87 166ZM204 508C202 509 202 510 203 512C204 513 204 513 204 514C205 514 205 513 205 511C204 510 204 509 204 508ZM191 496C188 483 183 475 176 474C176 466 169 452 162 452C162 449 162 447 163 447C117 368 81 273 54 160C51 155 54 143 48 137C48 122 39 87 39 72L38 74C38 75 38 75 37 75C34 67 35 53 35 50C34 50 34 50 33 51L32 52C34 43 33 36 29 30L31 32C31 34 32 35 33 34C31 24 29 18 27 16C28 15 30 14 31 14L26 4C29 -9 24 -42 24 -51L21 -52C19 -52 18 -53 19 -56C15 -55 17 -48 20 -45C19 -42 19 -26 21 3C24 2 22 -3 23 -3C26 -3 24 4 25 5C25 9 21 5 21 6C22 28 27 61 35 106C38 105 38 108 39 108C40 110 39 111 37 111L36 112C35 115 39 117 39 118C39 125 41 131 44 136C41 140 48 152 45 155C78 292 123 403 182 486C183 487 184 487 186 488L188 489C187 493 188 495 191 496ZM171 442C174 442 174 440 171 437ZM157 410C154 416 164 426 167 435C168 427 158 414 157 410ZM153 407H156V405H153ZM152 396C151 397 150 399 150 404H153C154 401 152 399 152 396ZM144 392C144 393 146 395 145 398C149 398 151 393 155 393C154 390 152 389 150 389C150 392 150 392 147 392ZM134 357C135 361 133 361 129 360C128 365 134 371 134 375C137 376 140 375 141 376C139 377 139 382 140 389C144 389 150 386 151 386C151 382 143 384 141 382C144 381 145 378 144 375C143 373 143 371 143 370H138C138 362 137 358 134 357ZM158 371H161V369H158ZM125 348C122 349 130 353 127 357C130 356 131 352 132 351C128 351 126 350 125 348ZM117 333C116 338 121 343 121 346C126 345 118 336 121 335H123C124 336 125 337 126 336C125 332 122 329 119 333C118 330 120 327 120 326C114 326 116 317 114 311C107 317 113 333 117 333ZM105 309C106 310 110 309 113 310C113 305 109 307 109 303C108 304 106 306 105 309ZM108 292C100 292 105 296 105 300C106 300 107 299 108 296ZM99 292C100 291 100 290 99 288ZM91 266C92 274 94 280 97 285H99C102 284 103 282 103 279C100 278 97 265 92 262C92 263 92 264 93 265C94 266 93 266 91 266C91 261 91 258 90 257H91C92 258 92 258 93 257C94 250 93 247 89 246C88 249 90 250 90 251C89 252 88 251 87 248C87 247 87 246 86 246C84 251 86 257 91 266ZM114 275C113 276 113 277 113 280C115 279 115 278 114 275ZM109 243C106 247 114 258 114 262C118 258 111 249 109 243ZM73 202C73 205 77 219 84 245C84 240 80 226 73 202ZM85 220C78 224 88 242 87 245C88 244 89 244 92 244C91 231 80 225 86 224C87 222 87 221 85 220ZM103 239C104 239 104 239 104 240C105 239 105 238 105 237C104 236 104 236 103 237ZM79 208C78 209 79 210 80 211V214C83 214 83 207 79 208ZM90 203C87 206 87 209 90 212C93 212 89 206 90 203ZM97 202H99ZM86 192C84 192 84 194 85 197L87 202C88 201 88 198 86 192ZM38 35C38 52 40 69 43 86C46 102 50 122 57 147C64 172 68 189 71 200C72 200 74 198 77 198C78 194 72 192 71 191C72 190 71 181 71 178C63 158 56 129 52 110C48 91 41 51 38 35ZM96 192C94 193 93 195 93 198H97L96 196C95 195 95 193 96 192ZM92 191H95V189H92ZM69 166C66 166 69 171 69 172C70 171 71 171 73 171C74 168 69 167 69 166ZM73 153C75 160 76 165 77 166C80 158 71 139 71 134C64 135 70 152 69 153ZM81 144C82 147 84 156 85 159C88 152 87 147 81 144ZM66 122C67 125 66 131 67 132C72 132 69 122 66 122ZM59 119C58 122 59 124 62 124V118C61 119 60 119 59 119ZM63 107C63 112 64 115 66 118C67 116 67 113 66 109C65 105 63 104 61 105C60 99 59 90 57 78C53 79 53 83 57 90C57 91 56 92 54 92C57 93 58 107 63 107ZM49 39C49 41 51 53 54 75C55 62 49 36 49 24C42 28 49 33 49 39ZM61 39H63V36H61ZM32 11C32 16 33 23 36 32C37 24 36 17 32 11ZM319 28C320 26 320 24 319 23C318 24 316 26 315 26C318 17 315 11 308 9V18C313 15 314 30 318 30ZM57 8H60V5H57ZM306 -1C305 0 304 1 305 2C306 4 306 5 306 6C309 5 309 3 306 -1ZM45 5C45 4 44 4 43 4C43 5 44 5 45 5ZM290 -26C291 -19 293 -13 296 -8C301 -13 297 -25 290 -26ZM285 -37C284 -37 284 -36 284 -33C285 -33 286 -34 287 -36C286 -35 285 -35 285 -37ZM32 -40C33 -40 34 -41 35 -44H33L32 -43ZM277 -42H281C280 -42 280 -46 277 -45ZM276 -55C272 -54 276 -49 276 -46H279C279 -47 279 -49 278 -52L276 -55ZM19 -66C20 -63 20 -55 21 -54C25 -57 22 -69 23 -73C22 -73 21 -73 20 -72C19 -71 19 -71 18 -72C17 -71 17 -69 18 -68C15 -67 15 -59 19 -62ZM31 -64C30 -61 32 -61 32 -58C36 -59 35 -65 31 -64ZM267 -62C271 -59 271 -67 267 -66ZM260 -70 263 -73C263 -76 262 -77 260 -76ZM23 -82C20 -83 20 -82 20 -79V-76C22 -77 23 -79 23 -82ZM35 -84C32 -84 30 -82 30 -79C33 -79 34 -81 35 -84ZM19 -92C15 -92 17 -84 17 -81L18 -85C18 -89 18 -91 19 -92ZM278 -88C278 -88 277 -87 276 -84C279 -84 279 -85 278 -88ZM23 -99C17 -99 20 -95 20 -90C23 -93 22 -98 23 -99ZM270 -96C273 -96 273 -97 272 -100C271 -102 270 -104 270 -105ZM250 -103C250 -100 251 -99 253 -100C252 -103 251 -104 251 -105ZM32 -127C33 -126 34 -126 35 -127ZM235 -136C233 -135 232 -134 233 -133C234 -130 237 -128 240 -128C241 -132 235 -133 235 -136ZM228 -145C227 -141 231 -139 231 -136C232 -140 231 -143 228 -145ZM133 366C133 363 134 362 135 362C137 363 136 365 133 366ZM87 165C90 162 91 162 91 165C90 166 89 166 87 166ZM83 137C81 135 81 133 83 132ZM29 53V56V54ZM339 51C342 46 335 37 335 32C344 40 346 46 339 51ZM26 34C25 33 25 26 26 26C26 27 30 34 26 34ZM332 29C329 24 324 14 326 9C322 8 320 3 320 -4C316 -3 315 -10 312 -10C312 -12 313 -14 315 -16C316 -13 325 -3 325 5C326 5 328 4 329 4C329 5 333 22 332 29ZM23 -4C22 -7 21 -8 21 -9C22 -10 23 -9 24 -8C25 -5 25 -4 23 -4ZM21 -13C20 -16 21 -18 25 -19C24 -17 24 -15 25 -13ZM313 -21C312 -21 310 -19 309 -19C309 -28 296 -33 303 -42C304 -38 312 -28 313 -21ZM315 -21V-19C314 -18 313 -19 313 -21ZM21 -31C20 -32 20 -35 23 -36C23 -35 23 -34 22 -33C22 -32 22 -31 21 -31ZM285 -52C285 -55 282 -56 282 -57C283 -58 285 -58 286 -57C288 -55 288 -53 285 -52Z" transform="translate(223.3,260.0) scale(0.18,-0.18)" fill="#CC9933"/><path d="M399 353C402 353 406 350 406 353C412 362 426 382 429 393C433 394 434 400 438 401C437 413 447 424 447 429C456 433 461 458 466 468C476 499 482 530 484 563C483 572 475 590 459 617C449 620 430 629 417 627C416 627 414 631 411 630C396 630 380 625 370 620C360 615 341 604 333 600C295 571 249 524 196 461C198 474 189 516 189 516C181 529 152 536 145 517C151 494 154 480 153 473C153 472 150 471 150 470H152C153 469 154 468 153 467C153 434 151 409 148 390C95 303 50 224 15 153C-21 82 -49 8 -69 -67C-70 -99 -56 -121 -27 -132C-21 -131 -15 -129 -10 -125C-11 -132 -12 -147 -15 -155C2 -213 36 -250 88 -267C96 -266 102 -268 109 -265C109 -268 110 -270 111 -269C143 -266 170 -260 194 -248C209 -240 213 -239 229 -228C236 -223 241 -219 244 -218C249 -214 272 -198 276 -195C276 -192 278 -186 279 -185C280 -185 283 -186 284 -186C306 -163 325 -140 340 -119C339 -119 339 -117 339 -114C345 -110 349 -105 352 -100C353 -93 358 -84 367 -75C366 -70 368 -65 373 -59C383 -27 390 0 394 23C393 26 393 30 394 35C394 36 391 38 392 42C397 49 397 58 393 69C392 73 396 76 396 79C395 84 394 99 391 104C391 119 388 130 382 139C373 178 347 217 303 254C312 259 332 266 332 275C353 286 377 311 404 350C402 350 400 351 399 353ZM358 605C355 606 361 611 362 608C362 607 358 606 358 605ZM156 235C162 245 167 267 172 300C179 307 180 337 184 342C183 344 183 348 183 354C188 374 190 387 190 393C216 434 241 466 264 489C271 500 283 514 301 531C318 547 328 556 330 559C338 563 356 581 368 585C371 590 384 595 387 599C396 599 419 611 434 608C435 605 440 600 441 597C448 552 438 502 411 449C405 436 398 423 390 410C387 407 382 399 375 387C359 362 350 349 338 337C323 320 297 302 261 283C261 279 260 277 259 276C261 273 262 270 261 267C268 260 273 254 274 249C283 246 288 242 291 237C326 224 339 189 354 156C353 151 354 147 357 143C359 132 361 108 362 72C357 10 335 -50 296 -108C280 -124 249 -157 232 -172H230L229 -171C213 -186 195 -197 176 -205C175 -208 167 -212 166 -213C159 -213 154 -215 151 -220C133 -225 123 -228 122 -231C119 -228 115 -227 112 -231C111 -232 104 -234 91 -235V-231C90 -231 90 -236 87 -235C80 -234 69 -233 62 -233C58 -226 41 -221 37 -216C33 -207 30 -202 27 -201C27 -200 26 -195 24 -185V-166C22 -162 22 -151 20 -151C21 -142 27 -115 28 -107C35 -83 53 -43 82 12C86 13 91 28 98 31C99 33 103 38 110 45C110 46 106 52 109 53C114 52 114 50 114 57C117 54 122 58 128 68C128 71 125 66 124 69C124 77 137 77 140 80H137C134 81 134 83 134 87C135 88 136 87 138 85C143 85 151 98 158 97C158 105 170 110 171 114C172 114 173 111 174 111C205 139 238 157 273 164C273 167 265 165 265 168C210 159 160 133 114 90C113 96 116 106 123 120C120 133 136 154 135 163C144 180 149 194 148 205C155 217 158 226 156 233ZM336 591C339 596 343 599 349 601C346 596 342 593 336 591ZM318 571C315 572 314 575 317 578C321 583 325 584 328 583C327 579 319 575 318 571ZM312 572C309 568 306 566 303 565C306 569 309 571 312 572ZM300 557C296 556 294 556 295 560C295 559 296 559 297 559C300 559 301 558 300 557ZM284 543C284 549 288 553 295 554C294 551 287 546 286 542C285 542 285 543 284 543C280 539 260 515 249 507C252 514 263 523 264 528C271 529 279 543 284 543ZM456 510C453 510 453 513 454 516H458V512C457 512 457 512 457 513C456 513 456 512 456 510ZM235 488C234 493 246 503 247 506C247 500 238 494 235 488ZM454 503C455 502 456 502 456 504C459 504 457 499 454 500ZM454 498C455 497 455 496 454 494ZM226 480C227 484 229 486 232 486C231 483 229 481 226 480C228 475 222 475 222 471C220 473 221 476 226 480ZM447 475C446 478 448 482 448 483C449 484 450 483 450 481C451 477 450 475 447 475ZM429 453C429 456 433 460 432 464C433 459 432 456 429 453ZM444 451C441 452 441 455 444 458C447 458 444 452 444 451ZM422 431C421 431 421 432 422 433C423 435 423 437 422 438H424C424 437 425 437 426 437C426 436 423 432 422 431ZM418 422C415 423 417 429 421 428ZM411 408C411 409 413 411 412 414C415 414 415 407 411 408ZM406 396C404 398 407 403 410 403C410 400 406 397 406 396ZM400 387C401 388 401 389 401 391C402 393 403 394 404 393C403 393 403 388 400 387C399 383 397 381 396 380C397 385 399 387 400 387ZM30 167C67 246 106 315 146 374C145 370 144 365 144 360H139C140 353 129 338 128 335C128 335 127 336 124 337C125 328 118 314 103 296C94 276 82 254 67 229C66 229 65 231 64 231C63 230 63 229 65 227C66 226 67 226 67 225C58 216 44 182 37 175C33 162 29 154 26 150C23 149 22 152 21 152L30 167ZM138 337C138 336 137 336 135 336C135 337 136 337 138 337ZM122 297C122 300 126 307 135 318C136 315 135 312 133 309C133 308 135 306 134 303C119 246 105 194 90 147C85 136 76 115 64 85C51 55 41 32 34 16C19 -16 -10 -66 -39 -94C-40 -87 -38 -70 -35 -41C-34 -40 -34 -39 -33 -39C-32 -40 -31 -40 -30 -39C-33 -30 -24 -8 -27 -1C-20 -3 -16 11 -22 17C-18 20 -16 24 -17 29H-14C-12 38 -7 48 2 59C2 71 4 80 9 85C9 86 5 95 8 96C9 91 12 101 15 97C18 104 17 111 25 113C26 126 38 144 39 157C38 157 38 156 38 155L37 153C34 156 38 159 38 162C39 162 39 160 39 157C41 158 43 159 45 158C46 163 55 178 55 187C57 187 58 186 57 183C57 188 68 203 69 211C72 212 74 213 75 212C76 221 86 234 86 241C87 241 88 241 89 240H90C89 247 94 250 94 255C96 255 98 256 99 257C105 272 113 286 122 297ZM162 311C159 311 161 315 162 315V314C161 313 161 312 162 311ZM118 307C120 310 121 312 122 312C120 309 119 307 118 307ZM111 291C111 290 110 290 109 290C109 291 110 291 111 291ZM154 277C154 284 156 288 156 291C158 291 158 279 154 277ZM146 288C146 287 145 287 144 287C144 288 145 288 146 288ZM148 247C145 248 148 256 148 259C151 258 151 254 148 247ZM134 245C133 247 134 250 135 254C138 253 137 245 134 245C134 240 132 232 132 228C126 232 133 237 133 245ZM136 209C135 216 142 228 142 233C144 229 142 221 136 209ZM128 216C125 219 129 222 129 225C133 223 128 219 128 216ZM124 204C121 204 125 206 124 209C127 208 127 207 124 204ZM136 205C136 204 135 204 134 204C134 205 135 205 136 205ZM135 193C133 192 132 194 133 197V200C134 199 135 194 135 193ZM122 192C120 193 120 195 121 198C122 198 122 197 122 195ZM123 164C123 171 131 187 130 192C134 182 132 173 123 164ZM111 162C111 165 112 167 114 168C114 165 113 163 111 162C111 155 109 151 106 149C106 153 110 158 110 162ZM112 135C111 140 118 151 118 156C122 152 117 138 112 135ZM226 156H230C232 155 232 155 230 154C229 153 228 153 228 152C227 152 227 152 226 153ZM3 113C4 116 18 141 19 152C30 138 10 124 7 108H6C-20 47 -38 2 -47 -29C-44 -32 -45 -34 -48 -35C-48 -38 -49 -40 -51 -41C-51 -38 -50 -36 -48 -35C-48 -31 -48 -29 -47 -29C-44 -14 -38 7 -29 32C-19 57 -13 76 -10 87C-3 98 1 106 2 113H3ZM220 151C220 148 218 148 214 149C216 153 218 154 220 151ZM208 145C208 146 209 147 212 147C211 146 209 145 208 145ZM27 139C27 141 31 144 31 146C34 145 34 144 33 142C31 138 29 137 27 139ZM200 143C204 145 206 146 207 146C207 142 203 140 200 143C197 139 195 137 193 138C193 140 195 142 200 143ZM189 137C186 134 184 133 183 133C184 136 186 137 189 137ZM175 127C174 131 181 133 181 134C182 133 178 127 175 127ZM109 126C109 129 112 129 111 132C115 132 113 125 109 126ZM170 127H172V125H170ZM163 122V123H169C165 121 163 120 162 120ZM86 63C87 76 105 110 105 122H110C101 95 93 76 86 63ZM372 114C371 115 370 117 369 122C373 122 373 117 372 114ZM19 121C20 122 21 120 21 117L19 119ZM150 109C149 109 149 110 149 111C148 112 148 112 148 113C150 113 151 112 151 110C150 110 150 110 150 109ZM376 84C375 85 374 93 372 108C375 103 376 88 376 84ZM142 107C144 106 144 105 142 103ZM12 104C12 103 12 102 13 102C12 97 8 104 12 104ZM152 103C153 104 154 105 156 105C155 104 153 103 152 103ZM127 93C127 95 128 96 130 96C130 94 129 93 127 93ZM117 85C117 88 118 88 121 87C122 86 123 85 122 84C121 84 118 85 117 85C117 82 116 80 115 77C111 78 112 86 117 85ZM132 85C132 84 131 84 129 84C129 85 130 85 132 85ZM79 69C80 76 82 81 84 84C85 80 82 70 79 69ZM105 68C105 73 107 77 110 80C111 80 111 78 111 75C109 75 108 74 108 73C108 70 107 68 105 68ZM376 72C380 69 381 61 376 60ZM74 37C73 38 73 39 74 40C75 41 76 42 76 43C78 42 77 40 74 37ZM378 21C374 25 378 33 378 38C382 34 378 28 378 21ZM73 32C73 35 74 36 75 36V33C74 33 74 33 74 32H73C73 29 69 24 68 21C65 24 69 32 73 32ZM374 -6C370 -2 375 10 375 14C378 13 378 9 377 3ZM78 6C77 6 77 7 77 8L76 9C78 10 79 9 79 7C78 7 78 7 78 6ZM372 -17C371 -17 370 -16 370 -14V-11C373 -12 373 -14 372 -17ZM357 -22C354 -21 358 -15 358 -12C359 -13 359 -16 357 -22ZM367 -37C364 -33 369 -19 369 -18C370 -20 369 -26 367 -37ZM354 -40C351 -40 351 -38 354 -35ZM351 -47C348 -47 351 -42 351 -41C353 -42 353 -44 351 -47ZM348 -52C344 -71 337 -86 327 -97C326 -104 317 -115 316 -118C314 -111 323 -101 327 -97ZM348 -81C348 -79 351 -72 356 -60C357 -63 354 -70 348 -81ZM14 -79C13 -79 13 -78 13 -77C14 -74 15 -73 18 -73C18 -76 16 -77 16 -78C15 -78 15 -78 15 -77C14 -77 14 -78 14 -79ZM344 -91C343 -90 343 -89 344 -87C345 -86 345 -85 345 -84C346 -85 346 -86 345 -88C344 -89 344 -90 344 -91ZM328 -117C328 -114 329 -113 332 -113L331 -114C331 -116 330 -117 328 -117ZM280 -159C283 -155 294 -140 313 -115C313 -124 307 -133 296 -142C295 -143 296 -144 297 -145V-148C292 -148 287 -158 280 -159ZM297 -154C306 -145 315 -133 326 -118C327 -119 328 -121 328 -124C319 -131 305 -152 300 -157C299 -157 298 -154 297 -154ZM283 -173C284 -166 295 -159 296 -156C297 -163 288 -173 283 -173ZM272 -168C275 -163 278 -161 280 -161C280 -162 277 -165 272 -168ZM250 -172C251 -171 253 -166 256 -166C256 -169 254 -171 250 -172ZM266 -189C267 -184 278 -177 279 -173C279 -180 282 -179 273 -184ZM229 -190C231 -187 237 -181 247 -174C246 -181 240 -186 229 -190ZM255 -187C254 -186 255 -184 258 -182C260 -180 261 -179 261 -178C264 -183 255 -184 255 -187ZM116 -244C158 -232 194 -214 225 -190C228 -193 220 -196 220 -199C217 -201 179 -223 171 -228C159 -234 136 -243 116 -244ZM260 -193C260 -192 260 -192 261 -191L262 -190C263 -190 263 -191 263 -192L264 -193H260ZM241 -198C242 -197 242 -196 242 -195H246C244 -197 242 -198 241 -198ZM252 -202C252 -197 254 -195 259 -195C258 -197 256 -199 252 -202ZM226 -209C226 -208 230 -207 229 -204C230 -205 231 -205 232 -205C231 -208 229 -210 226 -209ZM217 -213C220 -214 221 -211 224 -211C223 -212 219 -216 210 -221C209 -216 217 -216 217 -213ZM200 -228C201 -225 203 -222 208 -221C207 -224 201 -225 200 -228ZM183 -235C183 -231 195 -231 195 -226C196 -227 196 -229 193 -234C191 -233 188 -234 183 -235ZM176 -239C177 -236 179 -235 181 -235V-239H176C176 -242 174 -242 171 -241C171 -240 173 -239 176 -239ZM148 -249C160 -244 168 -242 171 -243C168 -243 155 -252 148 -249ZM115 -243C115 -244 114 -244 112 -244C112 -243 113 -243 115 -243ZM180 -247C180 -246 181 -245 184 -245C184 -248 183 -248 180 -247ZM138 -251H140V-253H138ZM127 302H129V305H127ZM122 293C124 294 125 296 125 297H122ZM120 287C120 288 118 288 117 287ZM50 206V204C51 205 52 205 53 206C52 207 52 207 51 207ZM6 108C2 107 3 106 3 113C5 114 6 115 6 114ZM-6 90C-10 86 -10 84 -6 84Z" transform="translate(296.4,260.0) scale(0.18,-0.18)" fill="#CC9933"/><path d="M87 166V169C87 171 88 172 89 172C90 172 90 167 93 168C94 171 92 175 89 180C90 181 91 181 92 180C93 179 94 179 95 179C95 191 107 204 98 210C98 211 99 212 101 212H104C104 216 105 219 107 222C106 223 105 222 104 221C103 219 103 218 102 219C109 234 127 287 131 296C128 296 127 294 126 294C130 298 131 305 134 308C132 306 130 306 129 308C130 309 131 316 134 316C135 316 133 313 137 312C140 316 134 322 134 323C143 327 145 341 150 346C143 347 145 353 152 352C152 359 173 382 169 393C172 393 173 400 177 399C178 403 179 406 179 407C184 414 197 432 217 462C256 521 282 548 319 568C327 561 334 545 339 521C344 496 350 480 356 473C360 472 365 474 368 474C380 486 385 503 384 526C382 548 376 565 365 578V582C343 597 325 604 312 603C309 603 308 600 307 600C271 597 238 576 223 559C210 545 174 496 164 485V477C153 469 140 437 133 430C132 429 133 428 134 427V424C125 414 107 367 101 358V351C93 338 89 326 89 317C88 318 86 316 85 316C84 303 69 273 68 258C67 259 67 259 66 258L65 256C64 244 60 229 53 212C54 212 55 211 55 209C50 207 52 199 49 196C48 187 44 169 37 140C30 111 26 87 26 70C21 60 18 42 17 15C11 -52 12 -104 19 -142C20 -144 39 -183 45 -192C52 -195 64 -204 81 -217C84 -216 74 -211 78 -208C89 -222 108 -228 134 -226C160 -223 178 -214 187 -199C192 -199 201 -187 209 -188C216 -177 245 -148 253 -129C254 -128 255 -128 257 -127L260 -126C261 -123 266 -116 266 -111C272 -110 277 -102 281 -88C285 -73 290 -65 296 -63C293 -59 304 -46 299 -42C293 -55 281 -73 263 -97H266C262 -102 258 -105 254 -106C254 -103 257 -97 254 -96C275 -66 304 -15 339 58C342 58 344 58 345 59C345 64 344 66 343 66C343 62 342 60 339 60C340 63 338 67 338 68C335 68 336 62 332 62C334 66 335 71 336 77C333 77 332 77 332 78C333 83 325 100 329 107C326 110 322 113 315 117C310 96 308 82 307 77C255 -43 214 -121 147 -174C130 -189 115 -197 103 -199C84 -198 72 -176 68 -153C62 -151 59 -140 59 -120L61 -118C61 -117 57 -115 57 -112C60 -107 59 -101 55 -94C56 -82 57 -66 58 -45C59 -24 59 -11 60 -6H63C60 -5 60 0 62 11C64 21 65 27 65 28C62 31 60 27 60 28C68 33 68 57 72 65C69 68 68 62 67 65C75 77 77 88 73 99C80 102 82 123 83 126C78 126 78 125 78 121C78 118 78 117 77 116C69 117 82 131 79 138C90 142 91 162 87 166ZM204 508C202 509 202 510 203 512C204 513 204 513 204 514C205 514 205 513 205 511C204 510 204 509 204 508ZM191 496C188 483 183 475 176 474C176 466 169 452 162 452C162 449 162 447 163 447C117 368 81 273 54 160C51 155 54 143 48 137C48 122 39 87 39 72L38 74C38 75 38 75 37 75C34 67 35 53 35 50C34 50 34 50 33 51L32 52C34 43 33 36 29 30L31 32C31 34 32 35 33 34C31 24 29 18 27 16C28 15 30 14 31 14L26 4C29 -9 24 -42 24 -51L21 -52C19 -52 18 -53 19 -56C15 -55 17 -48 20 -45C19 -42 19 -26 21 3C24 2 22 -3 23 -3C26 -3 24 4 25 5C25 9 21 5 21 6C22 28 27 61 35 106C38 105 38 108 39 108C40 110 39 111 37 111L36 112C35 115 39 117 39 118C39 125 41 131 44 136C41 140 48 152 45 155C78 292 123 403 182 486C183 487 184 487 186 488L188 489C187 493 188 495 191 496ZM171 442C174 442 174 440 171 437ZM157 410C154 416 164 426 167 435C168 427 158 414 157 410ZM153 407H156V405H153ZM152 396C151 397 150 399 150 404H153C154 401 152 399 152 396ZM144 392C144 393 146 395 145 398C149 398 151 393 155 393C154 390 152 389 150 389C150 392 150 392 147 392ZM134 357C135 361 133 361 129 360C128 365 134 371 134 375C137 376 140 375 141 376C139 377 139 382 140 389C144 389 150 386 151 386C151 382 143 384 141 382C144 381 145 378 144 375C143 373 143 371 143 370H138C138 362 137 358 134 357ZM158 371H161V369H158ZM125 348C122 349 130 353 127 357C130 356 131 352 132 351C128 351 126 350 125 348ZM117 333C116 338 121 343 121 346C126 345 118 336 121 335H123C124 336 125 337 126 336C125 332 122 329 119 333C118 330 120 327 120 326C114 326 116 317 114 311C107 317 113 333 117 333ZM105 309C106 310 110 309 113 310C113 305 109 307 109 303C108 304 106 306 105 309ZM108 292C100 292 105 296 105 300C106 300 107 299 108 296ZM99 292C100 291 100 290 99 288ZM91 266C92 274 94 280 97 285H99C102 284 103 282 103 279C100 278 97 265 92 262C92 263 92 264 93 265C94 266 93 266 91 266C91 261 91 258 90 257H91C92 258 92 258 93 257C94 250 93 247 89 246C88 249 90 250 90 251C89 252 88 251 87 248C87 247 87 246 86 246C84 251 86 257 91 266ZM114 275C113 276 113 277 113 280C115 279 115 278 114 275ZM109 243C106 247 114 258 114 262C118 258 111 249 109 243ZM73 202C73 205 77 219 84 245C84 240 80 226 73 202ZM85 220C78 224 88 242 87 245C88 244 89 244 92 244C91 231 80 225 86 224C87 222 87 221 85 220ZM103 239C104 239 104 239 104 240C105 239 105 238 105 237C104 236 104 236 103 237ZM79 208C78 209 79 210 80 211V214C83 214 83 207 79 208ZM90 203C87 206 87 209 90 212C93 212 89 206 90 203ZM97 202H99ZM86 192C84 192 84 194 85 197L87 202C88 201 88 198 86 192ZM38 35C38 52 40 69 43 86C46 102 50 122 57 147C64 172 68 189 71 200C72 200 74 198 77 198C78 194 72 192 71 191C72 190 71 181 71 178C63 158 56 129 52 110C48 91 41 51 38 35ZM96 192C94 193 93 195 93 198H97L96 196C95 195 95 193 96 192ZM92 191H95V189H92ZM69 166C66 166 69 171 69 172C70 171 71 171 73 171C74 168 69 167 69 166ZM73 153C75 160 76 165 77 166C80 158 71 139 71 134C64 135 70 152 69 153ZM81 144C82 147 84 156 85 159C88 152 87 147 81 144ZM66 122C67 125 66 131 67 132C72 132 69 122 66 122ZM59 119C58 122 59 124 62 124V118C61 119 60 119 59 119ZM63 107C63 112 64 115 66 118C67 116 67 113 66 109C65 105 63 104 61 105C60 99 59 90 57 78C53 79 53 83 57 90C57 91 56 92 54 92C57 93 58 107 63 107ZM49 39C49 41 51 53 54 75C55 62 49 36 49 24C42 28 49 33 49 39ZM61 39H63V36H61ZM32 11C32 16 33 23 36 32C37 24 36 17 32 11ZM319 28C320 26 320 24 319 23C318 24 316 26 315 26C318 17 315 11 308 9V18C313 15 314 30 318 30ZM57 8H60V5H57ZM306 -1C305 0 304 1 305 2C306 4 306 5 306 6C309 5 309 3 306 -1ZM45 5C45 4 44 4 43 4C43 5 44 5 45 5ZM290 -26C291 -19 293 -13 296 -8C301 -13 297 -25 290 -26ZM285 -37C284 -37 284 -36 284 -33C285 -33 286 -34 287 -36C286 -35 285 -35 285 -37ZM32 -40C33 -40 34 -41 35 -44H33L32 -43ZM277 -42H281C280 -42 280 -46 277 -45ZM276 -55C272 -54 276 -49 276 -46H279C279 -47 279 -49 278 -52L276 -55ZM19 -66C20 -63 20 -55 21 -54C25 -57 22 -69 23 -73C22 -73 21 -73 20 -72C19 -71 19 -71 18 -72C17 -71 17 -69 18 -68C15 -67 15 -59 19 -62ZM31 -64C30 -61 32 -61 32 -58C36 -59 35 -65 31 -64ZM267 -62C271 -59 271 -67 267 -66ZM260 -70 263 -73C263 -76 262 -77 260 -76ZM23 -82C20 -83 20 -82 20 -79V-76C22 -77 23 -79 23 -82ZM35 -84C32 -84 30 -82 30 -79C33 -79 34 -81 35 -84ZM19 -92C15 -92 17 -84 17 -81L18 -85C18 -89 18 -91 19 -92ZM278 -88C278 -88 277 -87 276 -84C279 -84 279 -85 278 -88ZM23 -99C17 -99 20 -95 20 -90C23 -93 22 -98 23 -99ZM270 -96C273 -96 273 -97 272 -100C271 -102 270 -104 270 -105ZM250 -103C250 -100 251 -99 253 -100C252 -103 251 -104 251 -105ZM32 -127C33 -126 34 -126 35 -127ZM235 -136C233 -135 232 -134 233 -133C234 -130 237 -128 240 -128C241 -132 235 -133 235 -136ZM228 -145C227 -141 231 -139 231 -136C232 -140 231 -143 228 -145ZM133 366C133 363 134 362 135 362C137 363 136 365 133 366ZM87 165C90 162 91 162 91 165C90 166 89 166 87 166ZM83 137C81 135 81 133 83 132ZM29 53V56V54ZM339 51C342 46 335 37 335 32C344 40 346 46 339 51ZM26 34C25 33 25 26 26 26C26 27 30 34 26 34ZM332 29C329 24 324 14 326 9C322 8 320 3 320 -4C316 -3 315 -10 312 -10C312 -12 313 -14 315 -16C316 -13 325 -3 325 5C326 5 328 4 329 4C329 5 333 22 332 29ZM23 -4C22 -7 21 -8 21 -9C22 -10 23 -9 24 -8C25 -5 25 -4 23 -4ZM21 -13C20 -16 21 -18 25 -19C24 -17 24 -15 25 -13ZM313 -21C312 -21 310 -19 309 -19C309 -28 296 -33 303 -42C304 -38 312 -28 313 -21ZM315 -21V-19C314 -18 313 -19 313 -21ZM21 -31C20 -32 20 -35 23 -36C23 -35 23 -34 22 -33C22 -32 22 -31 21 -31ZM285 -52C285 -55 282 -56 282 -57C283 -58 285 -58 286 -57C288 -55 288 -53 285 -52Z" transform="translate(168.3,330.0) scale(0.09,-0.09)" fill="#2C2416"/><path d="M128 128C139 147 139 167 130 186C102 231 7 238 3 167C4 166 4 161 4 154C-39 123 -45 11 20 1C43 1 63 15 72 27C80 39 98 68 105 77C105 84 109 90 116 93C130 100 162 103 166 104C167 108 164 111 165 112C168 109 169 110 170 113C173 113 177 113 181 114V109H189C189 113 183 111 183 115C187 112 193 114 196 113C196 114 195 115 194 116C193 117 193 118 194 119C195 115 201 120 202 120C203 120 203 114 206 115C206 119 207 121 208 121C209 115 215 119 226 128C225 128 224 126 225 123C225 121 226 120 227 121C228 122 226 130 230 131C233 132 233 128 236 128C236 136 252 133 242 140C242 136 241 135 239 136L238 137L237 138C238 139 239 144 242 145C244 140 246 140 249 145V141C249 140 249 139 250 138C262 143 281 155 292 162C289 168 288 173 289 176C286 179 278 178 277 178C227 154 177 137 128 128ZM87 198C109 181 96 143 85 121C64 118 46 121 33 128C33 134 37 141 46 148C42 163 49 174 57 179C64 184 82 194 87 198ZM233 137C229 137 228 144 235 143C235 142 235 141 234 140C233 139 232 138 233 137ZM226 133C226 136 227 137 227 138C228 138 230 136 231 136C231 134 229 133 226 133ZM219 137C222 137 223 136 223 134H219ZM190 127C190 132 200 128 200 134L220 131C212 127 194 128 190 127ZM165 124C169 123 179 126 183 122C179 118 166 116 165 124ZM159 121C162 122 164 121 164 118H160L159 119ZM148 116C148 112 141 114 142 119ZM17 115C38 101 55 93 68 91C67 90 65 87 62 81C54 68 55 69 48 59C37 45 23 35 3 31C-2 43 -4 55 -1 69C1 76 3 81 4 85C7 92 16 112 17 115ZM147 106C146 103 144 103 141 106ZM131 102C130 101 129 101 128 101C127 102 127 102 128 103C129 104 129 104 130 103ZM159 119C159 118 159 118 160 118C160 119 160 119 159 119Z" transform="translate(204.8,330.0) scale(0.09,-0.09)" fill="#2C2416"/><path d="M50 195C43 219 38 234 12 238C3 229 2 220 9 209C4 186 -12 137 -41 64C-52 36 -53 16 -46 5C-47 0 -44 -8 -37 -19C-33 -20 -27 -17 -23 -17C-8 16 2 40 9 55C16 70 26 89 41 113C56 136 71 156 87 171C86 165 82 153 77 136C66 100 63 77 67 46C72 41 80 23 84 19C95 15 107 16 119 22C143 33 152 43 173 68C180 77 192 87 208 98C223 109 233 117 237 121C234 86 238 57 251 32C257 26 260 22 261 20C280 11 302 8 327 11C399 40 458 78 504 125C500 132 505 132 509 139C500 138 491 129 486 128C490 135 492 140 492 141C507 142 524 164 524 183C517 178 501 165 476 144C451 123 430 109 415 101C350 54 302 38 269 53C266 63 267 78 272 97C277 116 278 131 276 142C277 142 277 140 278 140C273 153 246 174 245 175C223 166 197 148 168 120C138 92 115 74 98 65C100 75 106 95 116 125C126 154 130 177 128 194C123 199 109 219 101 224C89 225 78 221 68 211C58 201 52 196 50 195C50 194 50 194 49 194C49 195 49 195 50 195ZM501 152C501 153 503 155 507 157C508 155 507 154 504 153C505 154 491 148 489 135C488 135 487 136 487 139C486 138 479 135 480 130C477 133 474 129 473 130V125C468 128 456 114 451 119C456 124 464 131 471 133L472 132C472 131 472 130 473 130C478 141 491 147 501 152ZM227 149C226 153 230 152 230 155C233 155 235 153 235 149C232 148 228 148 227 149ZM225 148C226 147 226 146 225 145ZM203 128C206 133 216 141 219 145C222 145 223 143 223 140C215 140 210 128 203 128ZM193 118C194 125 197 129 201 129C198 124 196 120 193 118ZM485 124C485 126 486 127 487 127V124H485C485 120 481 120 479 118C478 117 476 116 473 116C473 116 475 117 479 118C471 122 457 107 450 103C450 113 468 117 476 125C477 125 484 121 485 124ZM451 113C450 112 449 114 449 119C450 118 451 116 451 113ZM186 117C187 118 188 116 188 113L186 115ZM83 106C82 107 82 108 83 110ZM77 91C74 91 76 96 79 95C80 92 77 92 77 91ZM419 88H421V86H419ZM513 145C513 142 509 143 510 140C513 139 516 144 513 145Z" transform="translate(228.3,330.0) scale(0.09,-0.09)" fill="#2C2416"/><path d="M72 -4C89 34 103 63 113 83C132 122 170 185 210 225C215 224 225 234 229 234C239 205 235 174 217 142C198 110 174 84 145 64C148 71 138 71 138 76C141 83 143 93 143 94C120 70 136 39 161 22C162 24 163 25 165 24C168 23 170 23 171 24C182 29 197 41 216 60C225 68 236 94 240 99C241 102 250 106 251 109C270 138 281 191 269 220C265 224 260 226 263 232C256 239 249 243 241 246C243 245 244 245 244 248C223 264 198 259 179 240C175 235 166 225 152 208C138 191 128 177 121 166C120 159 117 155 111 152C114 148 102 135 102 130L99 133C59 46 32 -20 17 -65C16 -46 24 -15 35 -8C31 -1 36 14 43 13C44 16 41 15 41 18C65 82 96 142 135 198C124 185 114 171 103 155C92 138 87 128 77 107C67 86 64 81 53 57C48 44 44 36 43 32C41 27 22 -19 21 -22C25 -5 26 10 24 24C28 25 26 30 29 30C30 40 32 61 35 94C38 126 41 151 42 168C45 192 20 213 -3 205C-1 195 -4 141 -3 128C-7 110 -11 79 -15 35C-18 -10 -22 -43 -27 -65C-28 -104 -34 -149 -44 -198C-46 -231 -55 -280 -72 -345C-89 -410 -97 -463 -98 -506C-101 -523 -91 -548 -78 -557V-564C-76 -565 -75 -564 -75 -562C-75 -559 -75 -557 -74 -557C-73 -561 -72 -565 -72 -568C-64 -568 -61 -574 -50 -570C-52 -550 -41 -496 -42 -478C-35 -467 -34 -435 -35 -424C-35 -423 -30 -420 -30 -417C-34 -416 -25 -400 -32 -399C-23 -374 -20 -337 -18 -317C-11 -276 4 -219 15 -184C20 -166 28 -141 38 -110C48 -78 55 -55 59 -42C62 -31 73 -13 71 -4L70 -2L71 1C71 2 71 3 72 3C72 2 72 1 71 1V-4ZM203 247C203 250 208 249 208 250C207 249 205 248 203 247C202 244 200 243 196 243L198 245C200 246 202 247 203 247ZM190 237C190 238 192 240 192 241C195 240 193 236 190 237ZM163 207C164 211 172 221 186 236C184 230 176 220 163 207C160 203 158 201 155 200V194C152 194 151 194 150 193C147 186 138 173 125 152C112 131 103 114 99 103C100 103 103 106 106 106C105 103 102 101 99 102V103C96 102 94 93 90 92C90 91 90 91 89 91L90 92C103 124 123 158 149 193H150C150 196 154 199 154 200H155C156 203 158 206 163 207ZM167 199C166 202 172 203 172 204C173 203 174 201 174 200C173 199 171 199 167 199ZM149 178C149 179 150 182 150 183C151 183 153 182 154 182C153 179 151 177 149 178ZM245 165C242 165 242 166 245 169C247 168 247 167 245 165C246 165 246 165 246 164C247 163 248 162 249 163C249 162 249 161 248 160C247 159 246 158 247 157C244 156 243 159 245 165ZM223 136C224 140 227 143 227 146C230 145 227 136 223 136C216 120 210 108 205 100C196 84 178 61 155 48C168 59 184 77 192 89C199 100 218 128 223 136ZM108 117C109 118 109 118 110 117C111 116 112 115 111 114C110 113 109 113 108 114ZM84 81C84 84 84 85 85 86C89 85 91 83 91 81C84 78 88 79 87 76C80 64 76 56 77 52C76 51 71 51 71 50C74 63 79 74 84 81ZM93 84C92 85 93 86 96 86C96 83 95 83 93 84ZM67 42C66 43 67 45 69 49C71 48 70 45 67 42ZM76 37C76 38 77 39 79 39C79 38 78 37 76 37ZM55 2C54 2 52 3 51 3C56 13 56 24 64 32C64 29 59 23 65 21V19C65 18 66 17 67 18C68 19 69 19 70 18C70 15 66 15 66 14C65 14 63 19 60 20C59 19 59 18 58 16L57 14C57 12 58 11 59 12C57 9 56 7 55 7ZM49 -8C48 -7 48 -1 49 0H53C54 -4 49 -5 49 -8ZM47 -21C45 -22 44 -21 43 -20C42 -17 42 -15 45 -12L48 -15C47 -17 46 -19 47 -21ZM39 -36C36 -35 39 -31 39 -30C42 -30 39 -35 39 -36ZM25 -69C28 -63 28 -47 39 -50C35 -52 34 -59 29 -59C30 -60 28 -64 31 -65C29 -69 27 -70 25 -69ZM24 -83C23 -81 22 -79 23 -76C26 -77 26 -80 25 -84C23 -85 22 -86 21 -87C22 -91 21 -93 18 -94C19 -95 21 -96 22 -96C23 -99 19 -101 19 -102C18 -100 18 -100 17 -101C16 -102 16 -103 16 -104C15 -91 17 -84 24 -83ZM13 -117C10 -117 11 -112 12 -111C15 -112 12 -116 13 -117ZM18 -124C17 -123 17 -122 18 -119C22 -119 18 -123 18 -124ZM11 -150C7 -150 11 -142 11 -138C18 -140 8 -144 11 -150ZM-15 -159C-16 -162 -17 -163 -18 -162ZM-15 -170C-19 -171 -20 -169 -18 -166C-16 -167 -15 -169 -15 -170ZM-20 -186C-21 -185 -21 -181 -19 -172C-14 -173 -21 -185 -20 -186ZM-35 -285C-36 -285 -36 -284 -36 -282V-278C-34 -278 -33 -279 -34 -281C-35 -282 -35 -284 -35 -285ZM-65 -340C-66 -340 -66 -339 -66 -336C-65 -336 -64 -337 -63 -339C-64 -339 -65 -339 -65 -340ZM-68 -365C-69 -358 -68 -353 -65 -348C-66 -359 -67 -364 -68 -365C-67 -367 -68 -372 -71 -380C-75 -377 -73 -365 -68 -365ZM-75 -388C-76 -386 -77 -384 -77 -383C-76 -383 -76 -383 -75 -384C-74 -385 -73 -385 -73 -383C-72 -383 -71 -384 -71 -385C-70 -388 -70 -390 -73 -390C-70 -393 -74 -396 -74 -399C-79 -396 -79 -393 -73 -390ZM197 259C197 258 197 258 196 257V256H197C198 255 198 255 199 255C199 256 198 258 197 259ZM191 254C184 252 177 248 172 241C176 241 186 252 191 254ZM168 237C162 234 157 229 154 220C162 228 167 234 168 237ZM136 199C141 202 146 209 153 220C145 213 139 206 136 199ZM135 198C136 197 136 198 136 199C135 199 135 199 135 198Z" transform="translate(271.6,330.0) scale(0.09,-0.09)" fill="#2C2416"/><path d="M226 697 225 696V701C226 701 226 701 227 700H228C227 707 238 724 234 732V730C233 728 233 727 232 727C233 732 232 736 229 739C242 776 231 821 195 824C175 808 156 775 149 756C146 747 141 731 134 708C127 685 123 670 121 665C115 646 106 617 95 577C83 537 74 509 69 492C62 491 47 489 24 487C1 485 -15 483 -26 480C-49 485 -56 464 -51 439C-44 430 -27 429 1 436C28 442 46 444 55 443C20 312 -2 211 -11 139C-15 135 -22 123 -25 120C-16 109 -17 90 -17 77C-21 70 -23 53 -23 28C-23 29 -23 38 -18 41C-19 39 -20 31 -20 17C-21 16 -22 17 -22 18C-23 19 -23 20 -24 20C-25 7 -24 -20 -21 -59C-18 -77 -14 -91 -11 -102C-4 -123 16 -150 47 -154C23 -134 10 -90 9 -23C12 -12 12 6 11 30C14 39 15 53 15 70C18 93 28 121 47 155C66 189 77 213 82 226C87 239 95 261 106 292C117 323 126 345 131 360C133 373 153 425 153 443C157 443 158 454 161 455C230 458 286 457 329 452C332 456 334 458 335 458C339 459 341 454 342 454C341 456 342 457 343 457C346 458 347 458 347 455C344 455 343 454 343 452C344 453 346 453 349 453C352 453 353 454 353 457C356 457 355 450 359 451C359 459 372 453 375 460C376 457 377 455 379 454C383 453 387 461 388 462C399 459 410 459 421 462C409 467 386 464 381 468V465C381 463 380 462 379 462C379 465 372 460 369 463C369 459 368 457 365 457C366 458 363 462 358 469C358 468 358 467 359 465C360 464 360 463 359 463C355 462 355 470 354 470C353 467 351 465 348 464C337 468 312 463 303 470L305 471C306 470 306 471 305 473C299 473 295 473 294 474C294 470 302 469 300 467C295 470 290 466 286 469C286 467 286 466 285 466C274 469 247 465 238 476C238 475 241 470 238 470C236 473 235 474 234 472C237 470 237 469 235 468L234 469C234 470 234 470 233 470C233 469 232 468 229 468C228 469 228 474 225 475C217 475 207 472 197 476C193 469 181 473 181 478C180 478 179 475 177 470C176 473 165 472 165 476C166 482 170 486 175 487C188 485 227 483 290 481C353 479 400 473 429 462C430 465 439 463 442 464C425 474 405 481 383 484C361 487 337 489 310 490C283 490 263 491 250 493C213 492 187 492 171 494C173 504 180 527 192 563C203 599 210 627 211 648C221 656 221 683 227 697ZM177 722C185 748 194 768 203 782C201 753 197 723 190 693C183 662 172 626 159 584C146 541 137 511 132 493C127 493 115 492 108 493C115 518 126 555 141 605C156 655 167 691 173 713C172 713 172 712 172 710H171L169 708C170 703 166 693 166 692C162 695 168 705 168 708L171 710C170 713 170 716 172 718H173H174C175 718 176 719 177 722ZM156 497C155 498 155 498 155 499C150 494 146 491 143 492C146 509 154 537 167 576C180 615 188 645 192 665C195 666 198 665 199 666C194 677 200 697 207 702C207 705 205 708 205 709C206 709 209 707 210 708C213 735 217 753 221 763C219 761 220 759 223 758C223 755 218 756 220 750C221 750 221 748 220 748C218 731 215 713 210 694C205 675 200 654 193 631C186 608 181 591 178 580C183 583 188 608 192 613C191 604 187 590 180 572C179 572 179 576 178 576C174 566 172 560 173 558C176 559 176 567 177 568C178 565 178 562 176 558L173 552C172 552 172 553 172 554C168 551 166 538 165 535C165 534 166 534 168 534V527C165 524 162 525 161 524C161 517 157 510 155 506C155 500 160 502 156 496ZM223 701C219 703 223 706 223 709C226 708 226 702 223 701ZM161 684C161 685 161 686 162 687C163 688 163 689 162 690C165 690 165 683 161 684ZM143 683C143 681 143 680 142 680C142 682 142 683 143 683ZM209 684H211V682H209ZM160 674C156 674 160 679 160 682C162 682 162 680 161 677C160 676 160 675 160 674ZM131 676C132 675 132 676 132 677C135 677 134 672 131 673ZM218 669 219 674V668ZM129 664C129 669 130 671 132 671C132 670 132 669 131 668C130 666 130 665 129 664ZM156 662C154 664 157 669 157 671C159 670 159 667 156 662ZM137 665C136 665 136 666 136 668C137 669 138 668 138 666C137 666 137 666 137 665ZM135 654C132 654 135 660 133 662C135 662 136 661 135 659C134 657 134 655 135 654ZM203 661C204 661 204 661 204 662C205 661 205 660 205 659C204 658 204 658 203 659ZM126 655C126 658 127 660 129 661C129 660 126 658 127 655ZM203 652C201 652 201 653 203 656C205 656 205 655 203 652ZM125 653C129 653 125 649 125 648ZM197 638C198 642 201 647 201 650C203 650 204 649 203 647C202 645 202 644 203 643C202 644 201 643 200 640C200 639 199 638 197 638ZM130 641C126 641 130 648 130 649C132 650 132 648 131 644C130 643 130 642 130 641ZM208 644C207 644 207 645 207 648C208 648 209 647 209 646C208 646 208 645 208 644ZM119 632C120 637 122 642 123 646C123 645 122 641 120 632ZM148 640C151 640 148 636 148 635ZM123 623C124 623 124 624 124 625C124 628 125 629 126 628C126 624 126 622 123 623ZM113 614C114 618 117 622 117 625C119 621 118 617 113 614ZM203 624H205V622H203ZM119 613C120 613 120 613 120 614C121 613 121 612 121 611C120 610 120 610 119 611ZM111 600C108 601 113 609 112 613C118 609 111 605 111 600ZM117 598C116 598 116 599 116 600L115 601C117 602 118 601 118 599C117 599 117 599 117 598ZM106 590C107 591 108 597 108 598C111 595 109 590 106 590ZM112 580C111 583 113 586 113 592C114 591 114 587 112 580ZM97 562C101 578 104 587 106 589C107 583 104 574 97 562C97 550 91 527 78 492C79 501 86 525 97 562ZM109 576C109 563 106 554 101 547C102 556 107 569 108 576ZM129 568C126 568 126 571 127 572C128 572 128 571 128 570ZM85 492C86 504 96 532 99 545H102C91 511 86 493 85 492ZM118 539C119 539 119 540 119 541C119 544 120 545 121 544C121 541 120 539 118 539ZM114 523V525C114 528 115 529 117 528C116 525 115 523 114 523ZM111 509C110 510 109 511 110 512C111 513 111 514 111 515C112 514 112 512 111 509ZM147 478C146 477 145 476 145 475C141 476 138 473 137 473C136 476 136 479 138 480C139 481 139 481 138 482C139 483 143 484 150 484C151 481 147 479 147 478ZM119 478C120 479 121 479 120 480C119 482 118 483 119 484L122 481C125 478 126 479 126 482C130 478 121 472 117 475C117 476 116 477 115 480C112 480 116 477 115 474C110 473 108 479 105 479C106 482 112 481 115 482C118 481 119 479 119 478ZM141 469C142 470 143 469 143 466C142 466 142 467 141 467ZM353 460C352 459 351 460 351 463C352 463 353 462 353 460ZM346 462H348V460H346ZM277 457C275 457 274 458 274 461C274 460 278 460 277 457ZM117 370C117 367 114 364 114 361C113 362 110 364 109 364C108 363 112 359 109 356L108 358C108 359 107 359 106 359C106 355 112 352 109 348C107 350 106 350 105 349C103 346 103 343 106 340C105 339 103 339 100 340C100 336 103 336 103 332C102 332 101 331 101 329C100 329 100 330 100 331C101 333 100 334 99 334C95 324 73 276 69 262C66 263 64 263 61 262C64 273 80 306 83 325C86 326 86 322 87 322C89 324 84 329 87 335L90 332C93 348 98 364 107 380C110 396 126 432 129 451C132 452 137 452 138 452C141 449 141 441 138 438V440C133 439 133 429 137 428C134 424 131 416 130 403C130 403 128 402 124 401C126 396 124 388 117 377C118 376 119 376 120 376C117 373 118 370 117 370ZM95 449C99 449 110 451 118 450C105 409 83 346 51 263C47 264 55 281 52 286C59 305 66 334 75 371C84 408 90 434 95 449ZM47 380C48 400 58 433 61 445H65C62 436 58 419 53 395C47 371 42 354 39 343C34 352 37 365 47 380ZM66 431C66 432 69 440 70 444C72 443 71 431 66 431ZM61 403C57 408 65 425 65 430C69 422 61 416 61 403ZM57 396C58 395 59 394 59 392H57ZM51 362C49 371 50 377 55 379C55 378 53 366 52 362ZM47 343C45 344 45 349 48 359C52 356 47 346 47 343ZM43 342C45 341 45 339 44 336C43 334 43 333 43 332ZM15 260C14 264 26 289 22 294L23 296C24 295 24 295 25 295C21 300 30 309 27 312C30 317 32 336 35 341C36 330 33 314 28 295C22 275 19 263 18 260C15 240 4 189 -1 157C-2 157 -3 157 -3 156C0 153 -7 149 -6 145C-11 148 -10 151 -3 156C-8 157 -6 162 -2 162C-2 163 -3 163 -4 164H-6C-6 167 0 170 0 173C0 174 -1 174 -3 174C-4 177 -3 179 0 176C-3 182 -3 187 1 191C2 200 4 204 5 205C4 214 7 229 15 250L13 251C12 252 12 252 11 252C11 253 12 253 13 252C15 252 16 254 16 257C17 257 17 257 18 258V260ZM37 312C34 315 39 322 39 325C40 323 40 319 37 312ZM97 325C98 324 98 323 97 322ZM34 301C34 306 34 308 37 307ZM31 293C33 283 32 277 28 275C27 265 26 260 25 260C24 257 24 243 19 239C20 242 21 257 25 260C22 263 27 271 27 275H28ZM13 202C11 209 17 216 17 223C20 218 13 203 13 202ZM9 178C9 179 10 185 11 198C15 190 9 187 9 178ZM-18 60C-19 60 -19 61 -19 63V66C-17 65 -17 63 -18 60ZM-11 47C-11 48 -9 49 -9 52C-8 52 -8 51 -8 50C-8 47 -9 46 -11 47ZM-20 43C-20 46 -18 48 -15 48C-15 45 -17 43 -20 43ZM-20 10C-22 10 -22 12 -21 16C-20 16 -20 15 -20 13ZM-11 4C-12 5 -13 10 -13 11C-12 12 -11 9 -11 4ZM-18 2C-21 3 -19 7 -19 10C-18 9 -17 8 -18 7ZM-12 -10C-13 -7 -13 0 -12 1C-11 -2 -11 -5 -12 -10ZM-19 -10C-20 -10 -20 -9 -20 -8L-21 -7C-21 -6 -19 -6 -19 -5C-18 -6 -17 -6 -18 -7C-19 -8 -19 -9 -19 -10ZM-12 -30C-16 -30 -13 -16 -13 -12C-10 -13 -12 -27 -12 -30ZM-18 -20C-21 -20 -22 -17 -19 -14C-18 -14 -18 -16 -18 -20ZM220 748 219 749 220 750ZM173 713C174 713 174 715 174 718H173ZM199 680C199 679 199 679 200 678C200 677 201 676 202 677C202 679 201 680 199 680ZM175 593H178V598H175ZM161 529V527H163C164 527 164 528 165 528V530H162ZM233 470C232 475 230 478 228 479C229 474 231 471 233 470ZM273 478C272 477 272 476 272 474C271 472 272 471 274 472C275 475 276 475 278 474C279 473 281 472 282 472C281 475 278 477 273 478ZM312 476C313 473 315 471 316 472C315 472 315 477 312 476ZM251 475C250 474 251 473 252 473C255 472 256 473 256 474C255 474 252 475 251 475ZM327 474C328 474 328 474 329 473L330 472V475C328 475 327 475 327 474ZM334 475V472C333 470 334 469 335 469C338 470 337 475 334 475ZM319 474C320 473 316 469 319 469C319 472 323 472 323 473C321 473 320 473 319 474ZM365 470C365 467 366 466 367 466C368 469 368 470 365 470ZM370 470C370 467 371 466 372 466C372 469 371 470 370 470ZM117 370C117 371 116 372 115 372ZM-24 -59C-24 -61 -23 -62 -21 -62V-59Z" transform="translate(299.7,330.0) scale(0.09,-0.09)" fill="#2C2416"/><path d="M128 94C126 77 126 53 127 21C134 7 143 -2 154 -5C159 -5 172 -8 179 -7C252 27 306 66 343 111C330 108 320 101 315 89C314 93 311 92 308 87C309 87 314 90 314 87C304 82 288 72 267 56C245 39 227 28 212 23C212 26 217 27 217 28C213 28 209 24 207 26C211 28 233 40 272 62C278 68 290 79 309 94C345 124 364 146 368 178L334 144C314 124 300 111 293 104C285 97 272 88 255 75C220 49 190 39 151 32C149 37 150 46 153 59C156 72 156 81 153 86C166 99 162 136 145 143C136 144 119 137 115 137C123 150 126 162 125 172C122 191 105 204 73 211C58 211 40 203 19 187C18 184 0 161 -3 158C-4 156 -8 151 -14 144C-25 128 -25 127 -34 113C-43 99 -44 94 -51 80C-60 60 -66 44 -70 22C-67 19 -65 11 -62 7C-62 4 -58 9 -58 5C-57 1 -51 -8 -50 -13C-33 -20 -15 -18 3 -8C21 3 40 18 60 38C79 58 93 71 101 76C104 77 114 81 117 85C117 90 124 90 128 94L129 95L128 94ZM-31 25C-30 28 -26 36 -19 50C-12 63 -8 72 -6 76C-4 79 0 87 7 98C19 120 27 124 41 139C55 154 69 162 88 167V149C88 137 90 130 93 127C85 120 73 108 57 93C24 61 0 40 -31 25ZM350 148C350 149 352 150 355 152C354 147 352 146 350 148ZM229 53C250 65 277 85 291 97C302 105 341 140 349 147C317 106 270 69 208 37C206 37 206 40 208 45C211 42 215 44 218 50C220 50 220 49 219 48C218 47 218 47 218 46C225 49 228 52 229 53H226C224 51 222 50 221 50C222 53 224 54 226 53C227 54 228 54 229 53ZM103 113C102 116 107 116 107 117C111 116 104 110 103 113ZM97 107C97 109 98 110 100 110C100 108 100 107 99 106C98 106 98 107 97 107C97 104 94 104 94 103C91 103 94 108 97 107ZM-39 37C-39 35 -41 31 -44 26C-45 27 -43 30 -39 37ZM199 21C198 25 201 25 206 25C206 24 204 23 199 21ZM201 17C202 20 206 22 211 23C211 22 208 20 201 17ZM-45 17C-46 17 -49 19 -50 19C-50 20 -49 20 -48 20C-45 20 -44 19 -45 17ZM351 127C351 124 347 123 347 122C348 121 350 122 351 123C353 124 353 126 351 127ZM349 118C346 119 344 117 343 117L346 114C349 115 350 116 349 118ZM225 32C221 31 220 29 221 28C221 29 225 29 225 32Z" transform="translate(313.0,330.0) scale(0.09,-0.09)" fill="#2C2416"/>
  </g>
</svg>