<svg xmlns="http://www.w3.org/2000/svg" viewBox="9 -618 472 824">
  <g transform="scale(1,-1)">
    <path d="M474 446V447V446Q475 445 476 445Q480 443 479 440L473 437Q473 435 475.5 436.0Q478 437 479 435Q481 367 476 337Q474 337 474.0 339.0Q474 341 472.0 341.0Q470 341 471.5 337.0Q473 333 472 331H467Q468 327 474 327Q474 325 470.5 309.0Q467 293 468 285H464Q464 284 465.5 282.5Q467 281 466 278Q460 275 458.5 264.0Q457 253 456 251Q459 251 459.5 253.5Q460 256 461.0 258.5Q462 261 464 261Q463 257 459.0 242.5Q455 228 454 219Q450 221 450.5 223.0Q451 225 453.0 229.5Q455 234 455 236Q440 224 450 216Q446 216 445.0 210.0Q444 204 442 203L432 205Q432 204 434 202Q436 199 434 197Q435 197 437.0 199.0Q439 201 441 199Q441 194 436.5 187.5Q432 181 426 183Q430 175 428.5 165.5Q427 156 429 152Q427 153 424 152L422 151Q422 149 423.0 147.5Q424 146 424 144Q420 144 419 145Q418 143 417.0 138.0Q416 133 415.0 129.5Q414 126 411 125Q411 120 414 117Q413 111 404.5 101.5Q396 92 395 84Q389 81 385.5 71.0Q382 61 378 59Q378 57 383 57Q382 53 377.0 52.0Q372 51 370 48Q371 45 373.5 47.0Q376 49 377 49Q377 47 374.5 44.5Q372 42 372 39Q367 39 365 38Q365 36 368.0 34.5Q371 33 370 30Q368 28 367 30Q366 32 365.0 32.0Q364 32 365.0 28.5Q366 25 364 24Q363 24 363 27Q363 29 362 29Q359 28 357.0 24.5Q355 21 353 20Q353 18 359 18Q356 15 353.5 9.0Q351 3 350 1H340Q340 0 345 0Q343 -3 340.5 -8.5Q338 -14 335.0 -18.0Q332 -22 327 -24Q327 -25 329 -27Q322 -25 316.0 -34.5Q310 -44 306 -46Q307 -50 311 -48Q310 -51 306.0 -54.5Q302 -58 302 -60Q300 -60 301.0 -57.5Q302 -55 300 -54Q298 -55 297.5 -57.0Q297 -59 297.0 -61.0Q297 -63 297 -64Q294 -64 293 -61Q292 -62 287 -69Q287 -71 289.5 -70.0Q292 -69 293 -69Q292 -71 289.0 -74.0Q286 -77 286 -78Q284 -78 283.0 -75.5Q282 -73 281 -73Q281 -78 275.0 -86.0Q269 -94 269 -97Q264 -96 258.0 -102.5Q252 -109 249 -111Q251 -115 247.0 -119.0Q243 -123 239 -120Q237 -120 238.0 -122.0Q239 -124 239 -125Q227 -129 221 -142Q218 -142 216 -141Q216 -142 218.0 -144.0Q220 -146 218 -147Q202 -151 198 -160Q197 -160 196.5 -158.0Q196 -156 194 -157Q191 -157 192.5 -159.0Q194 -161 194 -162Q166 -184 126 -202H123Q120 -202 120 -201Q116 -201 116 -205Q109 -206 100.0 -204.5Q91 -203 88 -203Q79 -198 63 -186Q59 -178 48.0 -167.0Q37 -156 31.0 -144.0Q25 -132 26 -115Q33 -69 44 -19Q50 -7 59.5 16.0Q69 39 78.0 57.0Q87 75 98 89V93Q110 105 114 119Q118 120 124 131Q123 131 121 131Q120 132 121 135Q122 136 122 137Q118 137 116.5 134.5Q115 132 114.0 128.5Q113 125 112 123Q106 119 98.5 106.5Q91 94 84 90Q83 88 84.5 86.5Q86 85 86 84Q71 80 69 73Q66 74 54 72Q41 77 32 96Q15 105 9 125Q9 136 15 150Q17 166 32 216Q51 270 108 396Q116 402 116 409Q125 420 141.5 449.5Q158 479 170 492Q173 534 166 605Q170 610 175.5 611.5Q181 613 190.5 612.5Q200 612 203 612Q212 609 216.0 599.5Q220 590 222.0 575.5Q224 561 227 555Q273 590 306 606Q310 606 311 603Q325 614 336 612Q362 618 374 615Q430 605 449 569Q465 531 466 530Q466 529 465.5 527.5Q465 526 465 525Q466 524 470 522Q468 514 471.0 500.0Q474 486 474 479Q475 476 480 476Q476 461 478 456Q477 455 475 455Q473 455 473 454Q473 454 473 452Q474 450 476.0 452.0Q478 454 479 452L478 448Q477 445 474 446ZM134 158Q130 158 130 155Q134 154 134 158L137 161Q136 155 129.5 150.0Q123 145 122 140Q123 140 125 134Q134 141 149.0 159.5Q164 178 173 185Q173 184 175 184L176 183Q178 192 192.0 201.0Q206 210 210 217Q217 220 232.5 231.5Q248 243 258 246Q257 245 257 236Q249 234 240.0 223.5Q231 213 225 213Q224 212 225.0 210.0Q226 208 226 207Q222 206 218.5 199.5Q215 193 210 191Q212 178 195 176Q194 174 196 173Q197 172 197.0 171.0Q197 170 194.0 168.0Q191 166 191 163Q190 163 189.0 165.5Q188 168 185 167Q187 165 187.0 161.5Q187 158 188 157Q188 159 189.5 158.0Q191 157 192 157Q192 159 192 160Q190 162 191 163Q194 163 198 167Q198 164 195.5 162.5Q193 161 194 158Q198 158 201.0 162.0Q204 166 207 167Q207 166 208 164Q159 100 146 74H141Q142 72 141.0 69.0Q140 66 140 65Q132 58 123.0 38.5Q114 19 106 13Q107 7 102.5 -0.5Q98 -8 99 -12Q94 -13 92.5 -16.5Q91 -20 94 -23Q94 -24 91.5 -24.0Q89 -24 89 -25Q90 -25 92 -30Q66 -97 75 -161Q84 -162 95.0 -159.0Q106 -156 112.0 -153.0Q118 -150 130.0 -141.5Q142 -133 144 -132L146 -134Q149 -136 152 -135Q153 -134 159.5 -127.0Q166 -120 170.5 -117.5Q175 -115 180 -117Q181 -116 180.0 -114.5Q179 -113 179 -112Q180 -111 187.5 -103.5Q195 -96 202 -94Q209 -81 220 -77Q220 -69 231 -65Q269 -19 291 3Q293 18 304 21Q306 25 313.0 37.5Q320 50 322 59L323 57Q323 55 324 55Q324 58 325.0 61.0Q326 64 326 66Q328 64 329 65V71H335Q336 72 334.0 73.0Q332 74 332 75Q334 77 336 77Q336 88 342 91Q346 91 346 89Q324 26 256 -51Q257 -57 261.0 -66.0Q265 -75 266 -77Q269 -76 271.5 -73.0Q274 -70 276 -69Q285 -53 298 -45Q299 -47 297.5 -49.0Q296 -51 298 -51Q299 -50 299 -39Q303 -37 305 -37Q307 -28 318.5 -17.0Q330 -6 332 3Q334 3 338 5Q338 12 345.0 20.5Q352 29 350 36Q365 47 364 61Q368 63 370.5 66.5Q373 70 375.5 75.0Q378 80 380 83Q377 82 376.5 83.0Q376 84 376 87Q378 88 379.0 87.0Q380 86 382 86Q383 89 381.5 91.0Q380 93 380 95Q381 96 382.5 94.5Q384 93 386 95Q387 97 385.0 98.5Q383 100 384 101Q386 98 389 101Q390 103 388.5 108.0Q387 113 390 113Q390 112 390 110Q390 108 390.5 107.0Q391 106 393 107Q395 110 394.0 113.0Q393 116 394.5 119.0Q396 122 400 122Q403 127 400 135Q401 134 405 134Q407 136 407.0 144.5Q407 153 407 155H413Q413 164 418 169Q416 171 416.0 175.0Q416 179 412 180Q412 178 412.5 175.5Q413 173 412.0 171.0Q411 169 408 168Q406 170 410 180Q405 183 405 183Q404 184 405 185Q413 179 412 188H410Q407 187 406 189Q409 193 414 191Q416 205 420 209Q423 207 427.0 207.5Q431 208 434 207Q433 210 435 216Q432 215 429.5 217.0Q427 219 425 218Q424 216 426.0 213.0Q428 210 424 210Q422 215 424.0 222.0Q426 229 429.5 237.0Q433 245 434 248Q433 253 436.0 263.5Q439 274 438 281Q437 281 436.0 280.0Q435 279 434 279Q433 276 434.0 273.0Q435 270 435 269Q433 269 431.5 270.5Q430 272 429 270Q430 268 429.0 264.5Q428 261 428 259H431V254Q430 252 428.0 254.0Q426 256 425 254Q424 251 426.0 248.0Q428 245 428 242H427Q426 241 425 241Q424 240 423.5 241.5Q423 243 422 243Q422 242 420.5 240.5Q419 239 420 237Q426 236 426 236Q425 233 423.0 228.0Q421 223 420 219Q419 219 418.0 221.5Q417 224 414 223Q414 222 417 219Q421 214 417 212Q417 217 413 217Q415 205 405 203Q409 212 413.0 228.5Q417 245 420 251L419 252Q416 252 417 255Q418 255 419.0 254.5Q420 254 422 254Q423 257 423.0 260.5Q423 264 425 267Q425 271 422 269Q421 271 421.5 272.0Q422 273 423 272Q426 272 426 275L425 278Q423 277 423 279Q428 281 427.5 289.0Q427 297 431 299Q431 306 435.0 327.0Q439 348 437 355Q432 323 416.0 263.0Q400 203 398 193Q397 195 398.0 198.5Q399 202 399 203Q395 200 391.5 188.0Q388 176 383 173Q444 330 440 464Q429 527 426 535Q425 537 421.5 547.5Q418 558 416.5 561.5Q415 565 411.0 573.0Q407 581 403.5 584.0Q400 587 394.5 590.5Q389 594 382 595Q381 595 375.0 593.5Q369 592 368 594Q367 592 363.5 591.0Q360 590 359 589Q352 589 343.0 583.5Q334 578 328 578Q307 565 284 549Q277 541 263.0 529.5Q249 518 239.0 506.5Q229 495 224 481Q222 480 221.5 475.5Q221 471 220 470Q221 469 221.5 466.5Q222 464 222.0 463.0Q222 462 220.0 461.5Q218 461 219 459Q221 444 218.0 423.5Q215 403 215 399H210Q210 397 212.5 397.0Q215 397 214 395Q210 395 209 393Q212 394 214.0 393.0Q216 392 215 390Q214 390 212.5 391.0Q211 392 209 391Q210 389 208.5 386.5Q207 384 207 383Q212 383 212 379Q210 376 209 370L208 363Q205 368 201 363Q203 362 202.5 357.0Q202 352 200 351Q199 349 201.0 348.0Q203 347 203 345Q195 345 202 338Q196 338 194.5 331.5Q193 325 196 321Q191 317 190.5 308.0Q190 299 186 297Q188 280 178 275Q178 272 178.0 269.0Q178 266 179 265L185 271Q182 258 176 263Q177 261 175.5 259.0Q174 257 174 255Q178 254 179 257L180 260Q182 256 174 245Q176 249 172 249Q166 233 153.0 202.5Q140 172 134 158ZM470 491ZM449 468Q449 471 447 471Q447 467 449 468ZM452 463H448V461L450 459Q452 461 452 463ZM444 453Q445 453 448 450Q447 449 446 449Q444 449 444 445Q448 443 450 444Q450 449 452 455Q451 455 449.0 455.5Q447 456 446.0 455.5Q445 455 444 453ZM470 449H466Q465 447 468.0 447.0Q471 447 470 449ZM471 434Q471 435 471 437Q471 441 470 441Q469 441 468 441Q468 440 468 438Q468 433 471 434ZM448 407Q447 406 445.5 405.0Q444 404 443 403Q446 400 444.0 390.5Q442 381 447 379Q453 427 446 440Q447 437 445.5 422.0Q444 407 448 407ZM473 425Q475 424 476 425Q477 427 475 428Q474 429 473 428ZM468 423H471V426H468ZM470 417ZM474 419ZM468 403ZM470 380V396Q466 396 466 395Q469 393 468.0 386.5Q467 380 470 380ZM453 380Q456 380 456.0 381.5Q456 383 455.5 385.0Q455 387 456 390Q455 390 453 380ZM454 369Q451 358 443 307Q447 309 448.0 319.5Q449 330 452 333Q451 338 453.5 350.5Q456 363 454 369Q457 369 457.0 369.5Q457 370 456.5 372.5Q456 375 456 377Q454 377 454 369ZM465 375ZM438 372Q440 371 441 372Q442 374 440 375Q439 376 438 375ZM203 371H206V373H203ZM465 368ZM438 357Q444 366 437 367Q438 365 437.5 363.0Q437 361 437.0 359.0Q437 357 438 357ZM112 163Q112 162 112 160Q110 159 111 157Q114 159 117.0 165.0Q120 171 122 173Q118 173 118.5 177.0Q119 181 122 182Q124 180 126 180Q127 182 125 183Q124 184 124 185Q131 184 126 192Q131 192 131 193Q127 199 126 204Q127 204 128.0 202.5Q129 201 130 201Q131 203 130.0 204.5Q129 206 129 207Q131 203 133.5 208.5Q136 214 132 215Q134 221 138 221V229Q136 229 134 229Q131 228 131 231Q142 231 143 230Q142 234 142.5 234.5Q143 235 145.0 236.5Q147 238 147 240Q146 240 143 239Q142 238 142 240Q143 241 143 243Q145 241 147.5 242.5Q150 244 149 247Q143 247 143 248Q151 260 150 267Q156 270 159.5 282.5Q163 295 166 299Q163 301 164 306Q162 306 161.0 302.5Q160 299 158 299Q162 298 159 294Q158 293 156 293Q156 291 157.5 289.5Q159 288 159 287Q156 288 155.5 285.0Q155 282 154 282Q154 283 152 283V299H155Q155 300 153.5 301.5Q152 303 153 305L155 306Q157 306 158 306Q157 308 158.0 310.0Q159 312 159 314Q158 313 156 312Q154 310 150 312L148 308Q146 305 144 305Q144 306 145.0 308.0Q146 310 146.5 312.0Q147 314 147 317Q142 324 147.5 340.0Q153 356 153 361Q150 361 150 362Q150 364 150 366Q134 342 114.0 292.0Q94 242 83 222Q84 215 76.5 194.0Q69 173 77 168Q87 187 107 223Q115 253 129 271Q129 269 127.5 265.5Q126 262 126.0 261.0Q126 260 128 257L126 258Q125 258 124 258Q115 217 86 161Q86 155 91.0 151.5Q96 148 96 145Q100 145 104 147Q102 153 112 163ZM166 354Q168 353 169 354Q170 356 168 357Q167 358 166 357ZM170 333Q173 333 174.5 337.5Q176 342 177 343Q170 343 170 333ZM164 333Q164 334 164.5 336.5Q165 339 165.0 340.5Q165 342 162 342Q162 341 161 338Q159 334 164 333ZM443 338Q446 336 446.0 339.5Q446 343 443 342ZM464 342H462Q461 342 461 341Q464 341 464 342ZM464 329Q464 332 460 332Q460 328 464 329ZM172 325Q172 331 170 331Q170 324 172 325ZM444 326V331Q441 331 441 327Q442 325 444 326ZM155 327Q156 328 158.5 327.5Q161 327 162 329ZM148 325Q146 325 146 324Q148 324 148 325ZM159 321Q160 321 161 321Q161 324 159 325ZM150 314Q156 314 156 324Q153 323 152.5 319.0Q152 315 150 314ZM461 313Q461 320 460 320Q456 313 461 313ZM164 315Q163 314 164.0 313.0Q165 312 165 311Q168 310 168.5 312.0Q169 314 168 317Q166 317 164 315ZM437 313ZM454 313ZM464 308Q464 310 465 309Q465 312 462 312Q462 311 463 310Q463 308 464 308ZM459 306Q459 310 456 311Q456 310 456 308Q456 307 456.5 306.5Q457 306 459 306ZM89 308ZM436 301Q439 301 440.0 299.5Q441 298 441.0 295.0Q441 292 442 291Q445 294 443.5 300.5Q442 307 438 308Q439 306 437.5 304.5Q436 303 436 301ZM92 303ZM470 300Q467 299 466.0 301.0Q465 303 467 305Q468 305 470 300ZM458 297Q458 302 456 302Q455 301 455.5 299.5Q456 298 458 297ZM438 293Q435 293 435 291Q434 289 436 289Q438 290 438 293ZM438 285Q441 284 441.0 287.0Q441 290 438 289ZM458 289Q455 289 455 288Q458 288 458 289ZM446 279ZM454 275Q456 276 455.5 277.5Q455 279 453 279Q451 278 451.5 276.5Q452 275 454 275ZM447 264Q449 264 449 267Q449 266 447.5 265.5Q446 265 447 264ZM446 255H449Q449 259 446 259ZM435 242Q436 242 437.5 243.0Q439 244 441 243Q438 249 441 251Q443 251 444 249Q445 254 442 256Q441 257 440 255L438 250Q435 245 435 242ZM440 231 442 234Q443 238 443 240H438Q439 238 438 235Q437 231 440 231ZM249 237ZM435 237ZM242 233Q244 232 245.5 234.0Q247 236 245 237Q245 236 243.5 235.0Q242 234 242 233ZM418 228Q421 227 421.5 230.0Q422 233 419 234Q420 232 419.0 231.0Q418 230 418 228ZM238 230ZM436 222Q435 223 434.0 226.5Q433 230 431 231Q428 229 430.0 226.0Q432 223 436 222ZM218 215V212H220Q220 213 218 215Q220 220 225 215Q226 216 225.0 217.0Q224 218 224 219Q232 223 233 223Q232 223 235 226Q236 227 236 229Q216 218 213 211Q215 210 215.5 212.5Q216 215 218 215ZM213 209ZM220 207H222V210H220ZM209 206Q207 208 206.0 207.5Q205 207 202.0 204.0Q199 201 198 200Q200 199 204.0 202.5Q208 206 209 206ZM419 188H417L416 187Q415 186 414 186Q418 178 420 175Q421 177 422.5 179.5Q424 182 424.0 183.0Q424 184 422.0 185.5Q420 187 419 188Q420 188 422 189Q423 190 425 189Q425 190 424.0 192.5Q423 195 424 197H429Q428 198 429 199L430 200Q426 198 426 202Q426 205 424 206Q422 195 417 194Q419 194 419 188ZM215 204ZM212 200ZM206 198H208V200H206ZM194 197ZM208 193H210V195H208ZM191 193Q189 193 189 192Q191 192 191 193ZM430 192Q430 191 430 190L431 188Q435 188 435 193Q431 193 430 192ZM176 181V179H178Q180 181 177 182Q177 181 176 181ZM419 161Q422 162 424.5 166.5Q427 171 425 174Q424 172 422.0 168.0Q420 164 419 161ZM69 165ZM71 161ZM161 155ZM106 150Q108 149 109.0 150.5Q110 152 110 155Q106 155 106 150ZM189 153ZM413 152Q413 147 418 149V153Q417 154 415.5 153.0Q414 152 413 152ZM411 151Q411 152 410.0 152.0Q409 152 408 151ZM164 150ZM150 141H153Q153 142 153.5 143.0Q154 144 154 145H150ZM153 137H155L156 138Q157 139 156 140H153ZM167 134H170V137H167ZM140 127Q142 127 143.5 130.0Q145 133 146 134Q140 134 140 127ZM149 131ZM170 129H172V132H170ZM407 129ZM142 122Q144 122 145.5 125.5Q147 129 148 129Q142 129 142 122ZM405 121H404Q404 120 402 120V117Q405 117 405 121Q409 123 408 126Q403 126 405 121ZM132 114Q132 115 132.5 115.5Q133 116 135 118Q138 121 135 122Q135 121 133 118Q130 115 132 114ZM135 109Q135 111 138 113Q140 116 137 117Q137 116 134.5 113.0Q132 110 135 109ZM404 115ZM406 110Q410 110 410 115Q407 115 405.5 113.5Q404 112 406 110ZM128 110ZM122 105V103H124Q124 104 125 104V107H123Q123 105 122 105ZM130 105ZM398 98Q397 102 399 104Q398 104 397.0 105.0Q396 106 395 105Q393 104 394.0 101.0Q395 98 398 98ZM124 101V98H126Q126 101 128 99V102H125Q125 100 124 101ZM392 86Q391 90 393.0 92.5Q395 95 395 97Q390 97 389 91Q388 86 392 86ZM126 83 124 81ZM131 81ZM382 78Q387 76 387 81Q382 86 382 78ZM129 78Q128 78 127 78Q126 78 126 77Q129 77 129 78ZM134 77ZM377 60Q379 65 381 73Q376 72 374 64Q373 61 377 60ZM372 61Q372 62 371.0 62.0Q370 62 370 61ZM77 39Q80 38 80.0 41.0Q80 44 77 43ZM362 42ZM80 35Q81 34 82 35Q81 37 80 38ZM358 32Q358 33 359.5 35.0Q361 37 358 37ZM346 9V7H348Q348 8 350 8V11H347Q347 9 346 9ZM335 -11H338V-9H335ZM74 -12ZM324 -12ZM76 -17ZM314 -29H316V-27H314ZM303 -43ZM291 -58Q288 -58 288 -59Q291 -59 291 -58ZM250 -65ZM230 -87Q243 -78 237 -76Q237 -79 233.0 -81.0Q229 -83 230 -87ZM224 -89Q226 -91 228 -87Q224 -85 224 -89ZM213 -101H215V-99H213ZM210 -103 208 -105ZM206 -108ZM239 -118Q244 -119 246 -114Q239 -116 239 -118ZM191 -121ZM179 -131Q187 -129 186 -124Q180 -126 179 -131ZM156 -132V-135H159Q159 -133 160 -133V-131H158Q158 -134 156 -132ZM160 -147Q173 -142 177 -132Q166 -138 160 -147ZM141 -147Q142 -147 148 -144Q148 -140 147 -139Q147 -141 144.0 -143.0Q141 -145 141 -147ZM213 -144ZM155 -150H159Q159 -147 155 -148ZM152 -154H154V-151H152ZM135 -165Q136 -164 138.5 -163.0Q141 -162 142.5 -161.5Q144 -161 145.5 -160.0Q147 -159 148.0 -157.5Q149 -156 149 -154Q137 -161 135 -165ZM122 -172Q130 -172 132 -167Q134 -165 131 -163Q130 -165 126.5 -167.5Q123 -170 122 -172ZM130 -173ZM110 -180ZM110 -203Q110 -202 109.0 -202.0Q108 -202 107 -203ZM473 504ZM214 387Q214 385 210 385Q210 387 214 387ZM207 360V355Q202 355 207 360ZM143 314ZM143 301V295Q140 295 141 297Q139 297 138.5 294.5Q138 292 137 291Q137 290 141 290Q141 284 136 289Q136 282 137 282Q133 275 133 275Q134 274 136 273Q136 271 133.5 272.0Q131 273 130 273Q130 283 135.0 295.5Q140 308 141 311Q142 310 141 306Q140 301 143 301ZM143 301ZM141 290Q141 293 143 293Q143 291 144 291Q144 290 141 290ZM190 293Q196 291 190 285Q187 288 190 293ZM148 281Q149 281 150.0 280.0Q151 279 152 279Q153 276 151.0 273.5Q149 271 149 269Q147 269 147.0 271.5Q147 274 148.0 276.5Q149 279 148 281ZM185 281Q188 280 188 277Q185 276 185 281ZM462 270ZM148 267Q148 266 146.5 264.5Q145 263 146 261Q141 262 145 266Q146 267 148 267ZM461 266ZM431 265H434V263H431ZM422 263Q420 259 420 258Q417 258 419 261Q420 263 422 263ZM141 258Q146 258 144 255H141ZM141 253Q142 250 141.5 248.0Q141 246 139.0 242.5Q137 239 137 237Q132 244 141 253ZM416 249ZM261 247Q261 249 264 249Q264 247 261 247ZM261 247ZM170 233ZM411 230ZM129 227Q130 227 131.0 225.5Q132 224 134 224Q133 222 131.0 222.0Q129 222 128 223V224Q129 226 129 227ZM408 224Q408 225 411 225Q411 224 408 224ZM128 219Q130 219 130 218Q130 213 126 212Q126 214 127.0 216.0Q128 218 128 219ZM164 217Q167 216 164 212Q162 211 161 211ZM132 215Q132 211 131 211Q131 214 132 215ZM404 211V207Q402 208 404 211ZM416 210ZM413 206Q414 206 415 205Q413 204 412 203V205Q413 205 413 206ZM126 204Q124 204 124 205Q126 205 126 204ZM158 203ZM404 200Q406 201 406 199L407 197Q404 193 400 183Q399 181 403 180Q404 179 405 179Q404 178 404 176Q403 172 400 173Q396 183 404 200ZM442 194Q444 193 442 187Q441 183 441 182Q439 183 439.0 184.5Q439 186 440.5 189.5Q442 193 442 194ZM123 188Q123 189 125 189Q125 188 123 188ZM394 188H396V186H394ZM212 180ZM430 181Q432 180 434 175Q426 175 430 181ZM395 179ZM436 180Q441 177 438 175Q436 174 435.0 176.0Q434 178 436 180ZM76 177ZM210 177ZM214 176Q216 177 217 175Q217 174 218 174Q217 171 212 171Q212 172 213.5 173.0Q215 174 214 176ZM203 173Q203 174 204 174H206Q206 173 203 173ZM383 173Q386 166 375 153Q375 163 383 173ZM396 163Q394 163 393 165Q391 172 396 173Q396 171 395.0 167.5Q394 164 396 163ZM434 171ZM388 170ZM108 169ZM112 163Q113 167 116 169Q115 168 114.0 166.0Q113 164 112 163ZM398 169Q398 170 399.0 170.0Q400 170 400 169ZM208 168ZM140 167ZM198 167ZM431 167Q432 168 433.0 168.0Q434 168 434 167ZM396 163Q399 161 402.5 162.0Q406 163 408 161Q405 160 403.5 152.0Q402 144 401 143Q399 143 396.5 144.5Q394 146 392 146Q391 146 390.0 143.0Q389 140 387 141Q386 143 387.0 145.5Q388 148 390.0 149.0Q392 150 394 149Q395 149 400 157L398 158Q395 160 396 163ZM104 161ZM137 161ZM383 161ZM393 158Q392 158 390.0 156.0Q388 154 386 153Q385 157 388.0 158.5Q391 160 393 158ZM141 156ZM141 156Q139 148 134 147Q140 155 141 156ZM381 155ZM375 153Q374 146 368.5 134.0Q363 122 362 115Q361 115 360.0 115.5Q359 116 358 116Q359 108 354.5 102.0Q350 96 350 92Q346 92 344 97Q351 105 360.0 125.0Q369 145 375 153ZM383 151 384 150Q385 150 386 150Q384 148 384 147L382 149Q383 150 383 151ZM376 145Q379 147 384 143Q383 142 382.0 142.5Q381 143 379.5 144.0Q378 145 376 145ZM394 141Q396 142 397.0 141.0Q398 140 399 140Q399 135 393 135Q389 134 389 138Q394 138 395 138Q395 139 394 141ZM380 140Q382 141 383 138Q382 136 380 135ZM420 140Q422 138 422.0 134.0Q422 130 420 128Q416 132 420 140ZM374 132Q376 133 376 131Q377 129 375 127Q374 127 374 132ZM388 132Q394 132 392 122Q387 130 388 132ZM118 128ZM380 128H382V126H380ZM114 119 112 116Q110 114 108 115Q112 121 112 123Q113 123 114 125Q116 127 117 125Q118 123 116.0 121.5Q114 120 114 119ZM370 126H372V123H370ZM386 126Q387 125 387.0 121.0Q387 117 388 116Q387 117 383 117Q382 122 386 126ZM416 126H419Q421 121 416 121ZM381 116Q383 117 384.5 115.0Q386 113 387 113Q384 111 377 108Q376 111 378.5 112.5Q381 114 381 116ZM108 115Q108 114 106 109Q104 110 105.5 112.5Q107 115 108 115ZM101 103ZM100 102Q100 103 101 103Q101 101 100 102ZM100 102Q98 96 95 96Q95 97 100 102ZM372 102Q376 102 376 95Q373 94 372.5 96.0Q372 98 372 102ZM362 97ZM95 92 94 91Q93 90 93 89Q89 89 93 92Q94 92 95 92ZM370 90Q366 84 370 78Q367 78 366.0 81.0Q365 84 366.0 87.0Q367 90 370 90ZM395 84Q396 84 397.0 86.0Q398 88 400 87Q396 81 395 81ZM86 79Q86 80 88 80Q88 79 86 79ZM392 77ZM388 69H390V67H388ZM357 53Q359 53 358 49Q358 47 356 48Q355 50 357 53ZM347 51Q348 49 347.0 47.5Q346 46 344 47Q345 47 345 49Q345 52 347 51ZM351 44Q353 44 353.5 42.0Q354 40 352 39Q350 40 349.5 41.5Q349 43 351 44ZM341 42ZM344 39ZM306 36ZM338 35ZM338 35Q336 32 335 32V35ZM342 35ZM346 33ZM298 26Q300 27 300 24L299 23Q298 23 298 26ZM334 23Q338 22 336 17Q333 16 332.5 18.5Q332 21 334 23ZM326 20Q326 21 327.5 21.0Q329 21 329 20Q329 19 328 18Q327 19 326 20ZM340 19ZM322 14H324V12H322ZM329 12ZM290 9Q288 7 286 7Q285 9 290 9ZM326 7ZM317 5ZM322 6Q325 6 324.0 2.5Q323 -1 322 -1Q319 0 320.5 2.0Q322 4 322 6ZM275 -6 276 -3Q278 0 279.5 1.0Q281 2 282 1Q280 -5 275 -6ZM315 -5Q315 -4 316.5 -4.0Q318 -4 318 -5Q319 -6 318 -7Q316 -6 315 -5ZM275 -6ZM266 -17ZM310 -18ZM260 -25ZM255 -29ZM248 -37ZM316 -41Q316 -46 312 -46Q312 -41 316 -41ZM278 -45ZM286 -45Q287 -47 285 -48Q284 -48 284 -49Q282 -49 283.0 -46.5Q284 -44 286 -45ZM268 -67Q269 -67 270.0 -68.0Q271 -69 272 -69Q272 -71 269.5 -70.0Q267 -69 268 -67ZM214 -70ZM269 -97ZM161 -120ZM161 -120Q154 -132 148 -130Q151 -129 154.0 -125.0Q157 -121 161 -120Z" fill="#CC9933"/>
  </g>
</svg>